{"glyphs":{"0":{"ha":1014,"x_min":0,"x_max":0,"o":"m 506 -17 b 194 126 378 -17 274 31 b 75 486 115 222 75 342 b 196 845 75 630 115 749 b 508 989 276 941 381 989 b 819 846 635 989 739 941 b 939 486 899 750 939 631 b 818 127 939 343 899 223 b 506 -17 738 31 633 -17 m 508 176 b 662 263 572 176 623 205 b 719 486 700 321 719 395 b 660 708 719 575 700 649 b 506 796 620 766 569 796 b 353 709 443 796 392 767 b 294 486 314 651 294 577 b 353 264 294 396 314 322 b 508 176 393 206 444 176 "},"1":{"ha":586,"x_min":0,"x_max":0,"o":"m 247 763 l 78 721 l 33 896 l 313 979 l 458 979 l 458 0 l 247 0 "},"2":{"ha":865,"x_min":0,"x_max":0,"o":"m 68 169 l 392 435 b 524 562 456 488 500 530 b 560 668 548 594 560 629 b 524 761 560 708 548 739 b 429 794 500 783 468 794 b 331 765 393 794 360 784 b 231 664 302 745 269 711 l 81 785 b 238 938 131 854 184 905 b 443 986 292 970 361 986 b 686 903 544 986 625 959 b 778 683 747 848 778 775 b 747 541 778 631 768 583 b 668 430 727 499 700 462 b 522 307 636 398 587 357 l 364 185 l 788 185 l 788 0 l 68 0 "},"3":{"ha":863,"x_min":0,"x_max":0,"o":"m 432 -17 b 53 151 274 -17 147 39 l 200 292 b 435 175 269 214 348 175 b 534 208 475 175 509 186 b 572 296 559 229 572 259 b 522 388 572 336 556 366 b 382 419 489 409 442 419 l 293 419 l 260 556 l 492 789 l 110 789 l 110 972 l 767 972 l 767 811 l 521 576 b 782 301 695 547 782 455 b 687 72 782 208 750 131 b 432 -17 623 13 538 -17 "},"4":{"ha":957,"x_min":0,"x_max":0,"o":"m 553 210 l 78 210 l 43 361 l 576 979 l 757 979 l 757 383 l 888 383 l 888 210 l 757 210 l 757 0 l 553 0 m 553 383 l 553 686 l 294 383 "},"5":{"ha":875,"x_min":0,"x_max":0,"o":"m 424 -17 b 60 129 283 -17 162 32 l 189 283 b 421 178 267 213 344 178 b 540 214 472 178 512 190 b 583 315 569 238 583 272 b 536 412 583 356 568 388 b 411 447 505 435 463 447 b 249 411 359 447 305 435 l 125 493 l 153 972 l 750 972 l 750 785 l 336 785 l 325 617 b 453 633 369 628 412 633 b 699 556 554 633 636 607 b 793 319 762 504 793 425 b 692 74 793 217 759 135 b 424 -17 625 14 536 -17 "},"6":{"ha":919,"x_min":0,"x_max":0,"o":"m 471 -17 b 190 88 353 -17 260 18 b 75 458 113 164 75 288 b 183 842 75 616 111 744 b 501 989 256 940 362 989 b 806 882 614 989 716 953 l 693 717 b 597 776 658 744 626 763 b 494 794 567 788 533 794 b 359 733 437 794 392 774 b 299 569 326 691 306 637 b 500 632 362 611 429 632 b 746 550 600 632 682 605 b 842 319 810 495 842 419 b 736 78 842 221 806 141 b 471 -17 666 15 577 -17 m 463 167 b 585 207 514 167 555 180 b 629 313 614 234 629 269 b 583 415 629 354 614 388 b 460 454 553 441 512 454 b 338 415 408 454 367 441 b 293 311 308 389 293 355 b 339 208 293 269 308 235 b 463 167 369 180 411 167 "},"7":{"ha":860,"x_min":0,"x_max":0,"o":"m 551 788 l 94 788 l 94 972 l 794 972 l 794 811 l 358 0 l 117 0 "},"8":{"ha":875,"x_min":0,"x_max":0,"o":"m 438 -14 b 168 64 328 -14 238 12 b 63 269 98 116 63 184 b 219 504 63 378 115 456 b 96 719 137 554 96 626 b 191 910 96 795 128 859 b 438 986 254 961 337 986 b 685 910 539 986 622 961 b 779 717 748 859 779 794 b 656 504 779 625 738 554 b 774 410 708 476 748 445 b 813 272 800 375 813 329 b 708 63 813 184 778 115 b 438 -14 638 12 548 -14 m 438 575 b 538 608 479 575 513 586 b 576 696 564 631 576 660 b 538 776 576 727 564 754 b 438 810 513 799 479 810 b 336 776 395 810 361 799 b 299 694 311 754 299 727 b 337 609 299 660 311 632 b 438 575 362 586 396 575 m 438 163 b 560 197 489 163 530 174 b 606 286 591 220 606 250 b 559 374 606 323 590 352 b 438 406 528 395 488 406 b 316 373 388 406 347 395 b 269 283 285 351 269 321 b 315 197 269 249 285 220 b 438 163 346 174 387 163 "},"9":{"ha":919,"x_min":0,"x_max":0,"o":"m 419 -17 b 100 99 299 -17 193 22 l 213 261 b 425 178 282 206 353 178 b 561 238 482 178 528 198 b 622 399 594 277 615 331 b 425 332 570 354 505 332 b 172 416 319 332 234 360 b 78 649 109 472 78 550 b 181 892 78 747 112 828 b 449 989 250 957 339 989 b 609 964 513 989 566 981 b 729 883 652 947 692 920 b 844 514 806 806 844 683 b 733 128 844 353 807 224 b 419 -17 659 31 555 -17 m 460 510 b 582 551 512 510 552 523 b 626 657 612 578 626 613 b 581 764 626 700 611 736 b 456 806 550 792 508 806 b 334 765 404 806 363 792 b 290 656 305 737 290 701 b 336 550 290 612 306 577 b 460 510 367 523 408 510 "}," ":{"ha":417,"x_min":0,"x_max":0,"o":""},"!":{"ha":450,"x_min":0,"x_max":0,"o":"m 101 944 l 101 972 l 349 972 l 349 944 l 283 331 l 167 331 m 113 222 l 338 222 l 338 0 l 113 0 "},"\"":{"ha":722,"x_min":0,"x_max":0,"o":"m 432 972 l 665 972 l 665 965 l 514 529 l 407 529 m 104 972 l 338 972 l 338 965 l 186 529 l 79 529 "},"#":{"ha":972,"x_min":0,"x_max":0,"o":"m 154 208 l 49 208 l 49 386 l 185 386 l 219 592 l 97 592 l 97 769 l 250 769 l 285 972 l 468 972 l 433 769 l 635 769 l 669 972 l 853 972 l 818 769 l 924 769 l 924 592 l 788 592 l 753 386 l 875 386 l 875 208 l 722 208 l 686 0 l 503 0 l 539 208 l 338 208 l 301 0 l 118 0 m 569 386 l 604 592 l 403 592 l 368 386 "},"$":{"ha":897,"x_min":0,"x_max":0,"o":"m 389 4 b 61 136 266 20 156 64 l 169 294 b 396 182 249 234 325 197 l 396 403 b 169 512 292 431 216 467 b 97 700 121 557 97 619 b 176 886 97 776 124 838 b 389 972 229 934 300 963 l 389 1053 l 533 1053 l 533 969 b 792 867 627 956 713 922 l 699 704 b 526 786 639 744 582 771 l 526 576 b 757 463 633 548 710 510 b 828 275 804 416 828 354 b 748 89 828 199 801 137 b 533 1 695 41 623 12 l 533 -136 l 389 -136 m 396 799 b 300 710 332 790 300 761 b 320 653 300 688 307 669 b 396 611 334 638 359 624 m 526 175 b 625 267 592 185 625 216 b 603 326 625 291 618 310 b 526 369 589 341 563 356 l 526 175 "},"%":{"ha":1194,"x_min":0,"x_max":0,"o":"m 297 486 b 128 558 228 486 171 510 b 63 735 84 605 63 664 b 129 912 63 805 85 864 b 300 983 174 959 231 983 b 469 912 369 983 426 959 b 535 735 513 864 535 805 b 468 558 535 665 513 606 b 297 486 424 510 367 486 m 869 972 l 1035 972 l 325 0 l 160 0 m 894 -11 b 725 60 825 -11 769 13 b 660 238 681 108 660 167 b 726 415 660 308 682 367 b 897 486 771 462 828 486 b 1067 415 967 486 1023 462 b 1132 238 1110 367 1132 308 b 1065 61 1132 168 1110 109 b 894 -11 1021 13 964 -11 m 300 613 b 365 648 328 613 350 624 b 389 735 381 672 389 700 b 363 821 389 768 380 797 b 297 857 346 845 324 857 b 232 822 269 857 248 845 b 208 735 216 799 208 770 b 234 649 208 701 217 673 b 300 613 251 625 273 613 m 897 115 b 963 151 925 115 947 127 b 986 238 978 174 986 203 b 960 324 986 271 978 300 b 894 360 943 348 921 360 b 829 325 867 360 845 348 b 806 238 813 302 806 273 b 831 151 806 204 814 175 b 897 115 848 127 870 115 "},"&":{"ha":967,"x_min":0,"x_max":0,"o":"m 658 94 b 374 -14 570 22 475 -14 b 139 63 278 -14 200 12 b 47 269 78 115 47 183 b 236 536 47 390 110 479 b 168 733 191 600 168 666 b 248 914 168 804 195 864 b 463 989 301 964 373 989 b 660 918 544 989 610 965 b 736 742 711 871 736 812 b 532 488 736 625 668 540 l 661 358 b 756 525 692 406 723 462 l 913 439 b 785 233 864 352 822 283 l 928 90 l 771 -19 m 421 600 b 519 656 465 617 498 635 b 550 732 540 676 550 701 b 525 798 550 760 542 782 b 458 822 508 814 486 822 b 390 794 430 822 407 813 b 364 721 372 776 364 751 b 421 600 364 684 383 644 m 399 161 b 539 217 445 161 492 180 l 353 406 b 263 275 293 374 263 331 b 301 192 263 241 275 213 b 399 161 326 172 359 161 "},"'":{"ha":397,"x_min":0,"x_max":0,"o":"m 104 972 l 340 972 l 340 965 l 189 529 l 79 529 "},"(":{"ha":618,"x_min":0,"x_max":0,"o":"m 467 -196 b 178 55 338 -125 242 -42 b 82 399 114 152 82 266 b 178 742 82 531 114 646 b 467 993 242 839 338 923 l 560 853 b 355 649 465 787 397 719 b 292 399 313 579 292 496 b 355 148 292 301 313 218 b 560 -56 397 78 465 10 l 467 -196 "},")":{"ha":618,"x_min":0,"x_max":0,"o":"m 58 -56 b 263 148 153 10 221 78 b 326 399 305 218 326 301 b 263 649 326 496 305 579 b 58 853 221 719 153 787 l 151 993 b 440 742 280 923 376 839 b 536 399 504 646 536 531 b 440 55 536 266 504 152 b 151 -196 376 -42 280 -125 "},"*":{"ha":597,"x_min":0,"x_max":0,"o":"m 264 683 l 129 581 l 71 681 l 226 746 l 71 811 l 129 911 l 264 808 l 242 975 l 356 975 l 333 808 l 468 911 l 526 811 l 371 746 l 526 681 l 468 581 l 333 683 l 356 517 l 242 517 "},"+":{"ha":889,"x_min":0,"x_max":0,"o":"m 346 393 l 94 393 l 94 585 l 346 585 l 346 835 l 543 835 l 543 585 l 794 585 l 794 393 l 543 393 l 543 143 l 346 143 "},",":{"ha":397,"x_min":0,"x_max":0,"o":"m 36 -137 b 172 -15 127 -127 172 -87 l 172 0 l 86 0 l 86 222 l 311 222 l 311 35 b 247 -160 311 -54 290 -119 b 54 -225 203 -202 139 -223 "},"-":{"ha":567,"x_min":0,"x_max":0,"o":"m 69 532 l 497 532 l 497 329 l 69 329 "},".":{"ha":397,"x_min":0,"x_max":0,"o":"m 86 222 l 311 222 l 311 0 l 86 0 "},"/":{"ha":736,"x_min":0,"x_max":0,"o":"m 576 1108 l 756 1108 l 140 -178 l -39 -178 "},":":{"ha":411,"x_min":0,"x_max":0,"o":"m 93 744 l 318 744 l 318 522 l 93 522 m 93 222 l 318 222 l 318 0 l 93 0 "},";":{"ha":411,"x_min":0,"x_max":0,"o":"m 93 744 l 318 744 l 318 522 l 93 522 m 43 -137 b 179 -15 134 -127 179 -87 l 179 0 l 93 0 l 93 222 l 318 222 l 318 35 b 253 -160 318 -54 297 -119 b 61 -225 210 -202 146 -223 "},"<":{"ha":889,"x_min":0,"x_max":0,"o":"m 94 393 l 94 585 l 767 879 l 767 683 l 297 490 l 767 297 l 767 99 "},"=":{"ha":889,"x_min":0,"x_max":0,"o":"m 115 765 l 774 765 l 774 574 l 115 574 m 115 404 l 774 404 l 774 213 l 115 213 "},">":{"ha":889,"x_min":0,"x_max":0,"o":"m 122 294 l 592 488 l 122 681 l 122 879 l 794 585 l 794 393 l 122 99 "},"?":{"ha":756,"x_min":0,"x_max":0,"o":"m 242 556 l 249 563 b 492 692 411 569 492 612 b 458 765 492 723 481 747 b 364 790 436 782 405 790 b 156 694 289 790 219 758 l 28 835 b 368 985 119 935 232 985 b 613 908 470 985 551 959 b 704 694 674 857 704 786 b 431 415 704 545 613 452 l 415 331 l 274 331 m 228 222 l 453 222 l 453 0 l 228 0 "},"@":{"ha":1361,"x_min":0,"x_max":0,"o":"m 693 -225 b 251 -48 517 -225 370 -166 b 74 381 133 70 74 213 b 251 810 74 547 133 690 b 682 989 369 929 513 989 b 1110 823 849 989 991 934 b 1288 439 1228 712 1288 584 b 1210 181 1288 328 1262 242 b 1011 90 1158 121 1092 90 b 799 174 918 90 847 118 b 593 90 738 118 669 90 b 412 164 521 90 460 115 b 339 358 363 213 339 278 b 433 605 339 455 370 537 b 650 707 495 673 568 707 b 842 613 731 707 795 675 l 857 686 l 1021 660 l 956 286 b 951 243 953 272 951 258 b 978 180 951 217 960 196 b 1053 156 997 164 1021 156 b 1179 231 1104 156 1146 181 b 1229 439 1213 281 1229 350 b 1070 785 1229 570 1176 686 b 682 933 964 884 835 933 b 290 772 526 933 396 880 b 132 381 185 665 132 534 b 291 -10 132 226 185 96 b 693 -169 397 -116 531 -169 b 1033 -76 814 -169 928 -138 l 1061 -121 b 693 -225 947 -190 825 -225 m 642 233 b 758 291 686 233 725 253 b 807 433 791 329 807 377 b 771 528 807 472 795 504 b 678 564 747 552 716 564 b 560 507 632 564 593 545 b 511 368 528 469 511 423 b 547 269 511 325 523 292 b 642 233 571 245 603 233 "},"A":{"ha":1097,"x_min":0,"x_max":0,"o":"m 450 979 l 647 979 l 1064 0 l 840 0 l 751 218 l 340 218 l 251 0 l 33 0 m 675 407 l 546 722 l 417 407 "},"B":{"ha":1003,"x_min":0,"x_max":0,"o":"m 117 972 l 568 972 b 822 886 680 972 765 944 b 889 718 867 842 889 786 b 761 508 889 626 846 556 b 897 417 821 485 867 455 b 943 267 928 380 943 330 b 846 68 943 180 911 113 b 579 0 781 23 692 0 l 117 0 m 522 579 b 676 685 625 579 676 614 b 640 759 676 717 664 742 b 536 785 616 776 581 785 l 325 785 l 325 579 m 579 188 b 731 296 680 188 731 224 b 572 401 731 366 678 401 l 325 401 l 325 188 "},"C":{"ha":1025,"x_min":0,"x_max":0,"o":"m 572 -17 b 216 128 430 -17 311 32 b 74 486 121 225 74 344 b 217 843 74 627 121 746 b 581 989 312 940 433 989 b 793 948 665 989 736 975 b 957 831 850 921 905 881 l 829 683 b 712 766 788 721 748 749 b 579 792 675 783 631 792 b 377 703 498 792 430 762 b 297 486 324 645 297 572 b 377 269 297 401 324 329 b 579 181 430 210 498 181 b 714 208 631 181 676 190 b 835 294 752 227 792 256 l 971 149 b 799 24 918 92 861 50 b 572 -17 738 -3 662 -17 "},"D":{"ha":1086,"x_min":0,"x_max":0,"o":"m 117 972 l 496 972 b 868 834 648 972 772 926 b 1013 486 964 742 1013 626 b 867 139 1013 347 964 231 b 496 0 771 46 647 0 l 117 0 m 496 193 b 708 274 584 193 655 220 b 789 486 762 328 789 399 b 708 697 789 572 762 643 b 496 779 653 752 583 779 l 331 779 l 331 193 "},"E":{"ha":931,"x_min":0,"x_max":0,"o":"m 117 972 l 850 972 l 850 782 l 329 782 l 329 585 l 788 585 l 788 394 l 329 394 l 329 190 l 857 190 l 857 0 l 117 0 "},"F":{"ha":911,"x_min":0,"x_max":0,"o":"m 117 972 l 857 972 l 857 778 l 331 778 l 331 571 l 794 571 l 794 376 l 331 376 l 331 0 l 117 0 "},"G":{"ha":1089,"x_min":0,"x_max":0,"o":"m 585 -17 b 216 125 434 -17 311 31 b 74 486 121 219 74 340 b 219 842 74 626 122 745 b 583 989 317 940 438 989 b 797 956 668 989 739 978 b 965 856 856 934 912 901 l 831 693 b 713 768 790 727 750 752 b 576 792 675 784 629 792 b 378 702 499 792 433 762 b 297 486 324 642 297 570 b 380 265 297 397 325 324 b 592 178 435 207 506 178 b 793 236 671 178 738 197 l 793 375 l 578 375 l 578 560 l 1000 560 l 1000 138 b 585 -17 879 35 740 -17 "},"H":{"ha":1056,"x_min":0,"x_max":0,"o":"m 117 972 l 331 972 l 331 588 l 725 588 l 725 972 l 939 972 l 939 0 l 725 0 l 725 390 l 331 390 l 331 0 l 117 0 "},"I":{"ha":467,"x_min":0,"x_max":0,"o":"m 126 972 l 340 972 l 340 0 l 126 0 "},"J":{"ha":783,"x_min":0,"x_max":0,"o":"m 338 -14 b 19 132 207 -14 101 35 l 154 282 b 332 185 213 217 273 185 b 463 346 419 185 463 238 l 463 972 l 682 972 l 682 336 b 590 76 682 224 651 138 b 338 -14 530 16 446 -14 "},"K":{"ha":1014,"x_min":0,"x_max":0,"o":"m 117 972 l 331 972 l 331 547 l 725 972 l 983 972 l 588 560 l 1001 0 l 744 0 l 443 414 l 331 297 l 331 0 l 117 0 "},"L":{"ha":860,"x_min":0,"x_max":0,"o":"m 117 972 l 331 972 l 331 194 l 815 194 l 815 0 l 117 0 "},"M":{"ha":1206,"x_min":0,"x_max":0,"o":"m 117 972 l 347 972 l 603 561 l 858 972 l 1089 972 l 1089 0 l 876 0 l 876 635 l 603 219 l 597 219 l 326 631 l 326 0 l 117 0 "},"N":{"ha":1097,"x_min":0,"x_max":0,"o":"m 117 972 l 314 972 l 769 374 l 769 972 l 981 972 l 981 0 l 799 0 l 328 618 l 328 0 l 117 0 "},"O":{"ha":1181,"x_min":0,"x_max":0,"o":"m 589 -17 b 220 129 441 -17 318 32 b 74 486 122 226 74 345 b 222 842 74 626 123 745 b 592 989 320 940 444 989 b 960 843 740 989 863 940 b 1107 486 1058 746 1107 627 b 959 130 1107 346 1058 228 b 589 -17 860 32 737 -17 m 592 181 b 801 269 677 181 747 210 b 883 486 856 328 883 400 b 800 703 883 571 856 644 b 589 792 744 762 674 792 b 379 703 504 792 434 762 b 297 486 325 645 297 572 b 381 269 297 401 325 329 b 592 181 436 210 506 181 "},"P":{"ha":928,"x_min":0,"x_max":0,"o":"m 117 972 l 514 972 b 786 879 629 972 719 941 b 886 633 853 817 886 735 b 775 381 886 525 849 441 b 493 292 701 322 607 292 l 331 292 l 331 0 l 117 0 m 500 482 b 624 524 553 482 594 496 b 669 632 654 551 669 588 b 624 741 669 679 654 716 b 496 779 593 766 550 779 l 331 779 l 331 482 "},"Q":{"ha":1181,"x_min":0,"x_max":0,"o":"m 878 67 b 589 -17 792 11 695 -17 b 220 129 441 -17 318 32 b 74 486 122 226 74 345 b 222 842 74 626 123 745 b 592 989 320 940 444 989 b 960 843 740 989 863 940 b 1107 486 1058 746 1107 627 b 1021 207 1107 383 1078 290 l 1121 122 l 985 -29 m 592 181 b 719 207 637 181 680 189 l 561 342 l 697 494 l 857 350 b 883 486 875 389 883 434 b 800 703 883 571 856 644 b 589 792 744 762 674 792 b 379 703 504 792 434 762 b 297 486 325 645 297 572 b 381 269 297 401 325 329 b 592 181 436 210 506 181 "},"R":{"ha":1004,"x_min":0,"x_max":0,"o":"m 117 972 l 561 972 b 844 874 684 972 779 939 b 928 649 900 818 928 743 b 719 347 928 500 858 399 l 957 0 l 707 0 l 496 311 l 331 311 l 331 0 l 117 0 m 547 500 b 668 538 599 500 639 513 b 711 640 697 564 711 598 b 667 744 711 686 696 720 b 543 779 637 767 596 779 l 331 779 l 331 500 "},"S":{"ha":889,"x_min":0,"x_max":0,"o":"m 463 -14 b 50 142 303 -14 166 38 l 176 293 b 467 175 272 214 369 175 b 569 200 510 175 544 183 b 607 269 594 217 607 240 b 568 337 607 297 594 320 b 411 393 542 354 490 373 b 276 434 356 407 311 421 b 178 488 242 447 209 465 b 110 572 147 510 125 538 b 89 693 96 605 89 646 b 184 906 89 781 121 852 b 429 986 247 959 329 986 b 790 863 567 986 688 945 l 679 701 b 426 797 588 765 503 797 b 334 773 387 797 356 789 b 301 710 312 757 301 736 b 342 639 301 678 315 655 b 511 582 369 623 425 604 b 744 475 617 554 694 519 b 819 288 794 431 819 369 b 722 66 819 193 787 119 b 463 -14 656 13 570 -14 "},"T":{"ha":900,"x_min":0,"x_max":0,"o":"m 343 775 l 47 775 l 47 972 l 853 972 l 853 775 l 557 775 l 557 0 l 343 0 "},"U":{"ha":1050,"x_min":0,"x_max":0,"o":"m 522 -15 b 213 95 390 -15 287 22 b 101 417 138 169 101 276 l 101 972 l 315 972 l 315 422 b 370 244 315 344 334 285 b 525 182 407 203 458 182 b 680 242 592 182 643 202 b 735 415 716 281 735 339 l 735 972 l 949 972 l 949 424 b 835 96 949 279 911 170 b 522 -15 760 22 656 -15 "},"V":{"ha":1042,"x_min":0,"x_max":0,"o":"m 33 972 l 269 972 l 524 288 l 778 972 l 1008 972 l 615 -7 l 426 -7 "},"W":{"ha":1558,"x_min":0,"x_max":0,"o":"m 42 972 l 271 972 l 472 314 l 690 975 l 874 975 l 1092 314 l 1293 972 l 1517 972 l 1185 -7 l 999 -7 l 779 629 l 560 -7 l 374 -7 "},"X":{"ha":1017,"x_min":0,"x_max":0,"o":"m 382 494 l 57 972 l 307 972 l 511 657 l 717 972 l 960 972 l 635 497 l 974 0 l 724 0 l 506 333 l 286 0 l 43 0 "},"Y":{"ha":994,"x_min":0,"x_max":0,"o":"m 390 383 l 17 972 l 267 972 l 499 582 l 735 972 l 978 972 l 604 388 l 604 0 l 390 0 "},"Z":{"ha":983,"x_min":0,"x_max":0,"o":"m 88 163 l 622 785 l 104 785 l 104 972 l 897 972 l 897 810 l 363 188 l 897 188 l 897 0 l 88 0 "},"[":{"ha":646,"x_min":0,"x_max":0,"o":"m 115 972 l 564 972 l 564 807 l 318 807 l 318 -15 l 564 -15 l 564 -181 l 115 -181 "},"\\":{"ha":736,"x_min":0,"x_max":0,"o":"m -19 1108 l 160 1108 l 775 -178 l 596 -178 "},"]":{"ha":646,"x_min":0,"x_max":0,"o":"m 82 -15 l 328 -15 l 328 807 l 82 807 l 82 972 l 531 972 l 531 -181 l 82 -181 "},"^":{"ha":694,"x_min":0,"x_max":0,"o":"m 275 972 l 419 972 l 625 685 l 472 685 l 346 847 l 219 685 l 69 685 "},"_":{"ha":833,"x_min":0,"x_max":0,"o":"m -3 -61 l 836 -61 l 836 -222 l -3 -222 "},"`":{"ha":694,"x_min":0,"x_max":0,"o":"m 153 993 l 335 1072 l 492 826 l 331 826 "},"a":{"ha":822,"x_min":0,"x_max":0,"o":"m 306 -14 b 123 47 232 -14 172 6 b 50 217 74 88 50 144 b 131 394 50 295 77 355 b 350 454 185 434 258 454 b 532 424 412 454 473 444 l 532 436 b 372 572 532 527 479 572 b 167 532 308 572 240 559 l 114 693 b 403 753 205 733 301 753 b 654 669 515 753 599 725 b 735 432 708 616 735 537 l 735 0 l 531 0 l 531 81 b 306 -14 474 18 399 -14 m 369 132 b 489 169 419 132 458 144 b 535 263 519 193 535 225 l 535 300 b 400 328 495 319 450 328 b 292 301 354 328 318 319 b 254 222 267 283 254 256 b 286 156 254 194 265 172 b 369 132 307 140 335 132 "},"b":{"ha":938,"x_min":0,"x_max":0,"o":"m 538 -14 b 306 97 445 -14 368 23 l 306 0 l 94 0 l 94 1014 l 306 1014 l 306 638 b 538 758 365 718 442 758 b 776 654 630 758 710 724 b 876 371 843 585 876 490 b 777 90 876 252 843 159 b 538 -14 711 21 631 -14 m 483 165 b 613 223 534 165 577 184 b 665 374 648 261 665 312 b 613 522 665 434 648 483 b 483 579 577 560 534 579 b 355 522 432 579 390 560 b 303 371 320 483 303 433 b 355 223 303 311 320 261 b 483 165 390 184 432 165 "},"c":{"ha":793,"x_min":0,"x_max":0,"o":"m 446 -17 b 169 96 335 -17 242 21 b 58 371 95 171 58 263 b 169 645 58 478 95 570 b 449 758 244 721 337 758 b 744 628 568 758 667 715 l 621 503 b 447 576 569 552 511 576 b 318 517 395 576 352 556 b 267 371 284 477 267 428 b 319 224 267 313 284 264 b 456 165 353 185 399 165 b 626 244 514 165 571 192 l 750 119 b 619 18 709 75 666 41 b 446 -17 573 -5 515 -17 "},"d":{"ha":938,"x_min":0,"x_max":0,"o":"m 400 -14 b 161 90 307 -14 228 21 b 61 374 94 160 61 254 b 160 655 61 492 94 586 b 400 758 227 724 306 758 b 632 647 493 758 570 721 l 632 1014 l 843 1014 l 843 0 l 632 0 l 632 107 b 400 -14 573 26 495 -14 m 454 165 b 583 223 505 165 548 184 b 635 374 617 261 635 312 b 583 522 635 434 617 483 b 454 579 548 560 505 579 b 325 522 403 579 360 560 b 272 371 290 483 272 433 b 325 223 272 311 290 261 b 454 165 360 184 403 165 "},"e":{"ha":851,"x_min":0,"x_max":0,"o":"m 447 -17 b 168 91 334 -17 241 19 b 58 371 95 163 58 256 b 163 646 58 479 93 571 b 426 758 232 721 320 758 b 696 642 544 758 634 719 b 789 354 758 564 789 468 b 786 299 789 343 788 325 l 268 299 b 331 190 278 251 299 215 b 450 153 362 165 402 153 b 631 229 516 153 576 178 l 751 122 b 447 -17 676 30 575 -17 m 583 431 b 533 546 577 479 560 517 b 426 589 505 575 470 589 b 320 547 384 589 348 575 b 265 431 292 518 274 480 "},"f":{"ha":531,"x_min":0,"x_max":0,"o":"m 131 564 l 43 564 l 43 738 l 131 738 l 131 785 b 190 965 131 865 150 925 b 361 1024 229 1004 286 1024 b 511 1003 418 1024 468 1017 l 511 828 b 415 846 478 840 446 846 b 339 765 364 846 339 819 l 339 736 l 510 736 l 510 564 l 342 564 l 342 0 l 131 0 "},"g":{"ha":938,"x_min":0,"x_max":0,"o":"m 428 -225 b 99 -147 306 -225 197 -199 l 171 11 b 422 -57 251 -34 335 -57 b 635 146 564 -57 635 11 l 635 182 b 528 91 601 141 566 111 b 392 61 491 71 445 61 b 158 156 300 61 222 93 b 61 411 93 219 61 304 b 158 665 61 518 94 602 b 392 758 223 727 301 758 b 632 647 484 758 564 721 l 632 744 l 843 744 l 843 168 b 749 -125 843 36 812 -62 b 428 -225 682 -192 575 -225 m 453 236 b 583 285 505 236 548 252 b 635 411 617 317 635 359 b 583 535 635 461 617 502 b 453 583 548 567 505 583 b 324 535 401 583 358 567 b 272 408 289 502 272 460 b 324 284 272 357 289 316 b 453 236 358 252 401 236 "},"h":{"ha":865,"x_min":0,"x_max":0,"o":"m 94 1014 l 306 1014 l 306 639 b 524 758 368 719 440 758 b 710 685 603 758 665 734 b 776 482 754 636 776 568 l 776 0 l 565 0 l 565 415 b 532 528 565 464 554 502 b 438 567 510 554 478 567 b 341 528 397 567 365 554 b 306 415 317 502 306 464 l 306 0 l 94 0 "},"i":{"ha":419,"x_min":0,"x_max":0,"o":"m 99 1014 l 321 1014 l 321 826 l 99 826 m 104 744 l 315 744 l 315 0 l 104 0 "},"j":{"ha":419,"x_min":0,"x_max":0,"o":"m 99 1014 l 321 1014 l 321 826 l 99 826 m 76 -226 b -15 -218 44 -226 13 -224 l -15 -53 b 29 -57 1 -56 16 -57 b 104 29 79 -57 104 -28 l 104 744 l 315 744 l 315 13 b 76 -226 315 -147 236 -226 "},"k":{"ha":822,"x_min":0,"x_max":0,"o":"m 94 1014 l 306 1014 l 306 474 l 553 744 l 806 744 l 522 451 l 815 0 l 574 0 l 379 304 l 306 226 l 306 0 l 94 0 "},"l":{"ha":419,"x_min":0,"x_max":0,"o":"m 104 1014 l 315 1014 l 315 0 l 104 0 "},"m":{"ha":1319,"x_min":0,"x_max":0,"o":"m 94 744 l 306 744 l 306 639 b 525 758 368 719 441 758 b 735 640 624 758 694 719 b 979 758 802 719 884 758 b 1165 688 1059 758 1121 735 b 1231 485 1209 641 1231 574 l 1231 0 l 1019 0 l 1019 415 b 896 567 1019 516 978 567 b 802 528 856 567 825 554 b 768 415 779 502 768 464 l 768 0 l 557 0 l 557 415 b 433 567 557 516 516 567 b 340 528 394 567 362 554 b 306 415 317 502 306 464 l 306 0 l 94 0 "},"n":{"ha":865,"x_min":0,"x_max":0,"o":"m 94 744 l 306 744 l 306 639 b 524 758 368 719 440 758 b 710 685 603 758 665 734 b 776 482 754 636 776 568 l 776 0 l 565 0 l 565 415 b 532 528 565 464 554 502 b 438 567 510 554 478 567 b 341 528 397 567 365 554 b 306 415 317 502 306 464 l 306 0 l 94 0 "},"o":{"ha":922,"x_min":0,"x_max":0,"o":"m 460 -17 b 173 95 345 -17 249 21 b 58 371 97 170 58 262 b 174 646 58 479 97 571 b 463 758 252 721 348 758 b 749 647 577 758 673 721 b 864 371 826 572 864 480 b 748 96 864 263 825 171 b 460 -17 671 21 575 -17 m 463 165 b 603 224 521 165 568 185 b 656 371 638 264 656 313 b 601 516 656 427 637 476 b 460 576 564 556 517 576 b 319 517 401 576 355 557 b 267 371 284 478 267 429 b 322 226 267 314 285 266 b 463 165 358 185 405 165 "},"p":{"ha":938,"x_min":0,"x_max":0,"o":"m 94 744 l 306 744 l 306 638 b 538 758 365 718 442 758 b 776 654 630 758 710 724 b 876 371 843 585 876 490 b 777 90 876 252 843 159 b 538 -14 711 21 631 -14 b 306 97 445 -14 368 23 l 306 -222 l 94 -222 m 483 165 b 613 223 534 165 577 184 b 665 374 648 261 665 312 b 613 522 665 434 648 483 b 483 579 577 560 534 579 b 355 522 432 579 390 560 b 303 371 320 483 303 433 b 355 223 303 311 320 261 b 483 165 390 184 432 165 "},"q":{"ha":938,"x_min":0,"x_max":0,"o":"m 632 107 b 400 -14 573 26 495 -14 b 161 90 307 -14 228 21 b 61 374 94 160 61 254 b 160 655 61 492 94 586 b 400 758 227 724 306 758 b 632 647 493 758 570 721 l 632 744 l 843 744 l 843 -222 l 632 -222 m 454 165 b 583 223 505 165 548 184 b 635 374 617 261 635 312 b 583 522 635 434 617 483 b 454 579 548 560 505 579 b 325 522 403 579 360 560 b 272 371 290 483 272 433 b 325 223 272 311 290 261 b 454 165 360 184 403 165 "},"r":{"ha":581,"x_min":0,"x_max":0,"o":"m 94 744 l 306 744 l 306 594 b 543 758 354 708 433 763 l 543 538 l 532 538 b 365 472 460 538 404 516 b 306 275 325 428 306 362 l 306 0 l 94 0 "},"s":{"ha":697,"x_min":0,"x_max":0,"o":"m 356 -14 b 36 99 238 -14 131 24 l 126 238 b 361 149 208 178 286 149 b 450 207 420 149 450 168 b 448 221 450 212 449 216 b 440 233 447 225 444 230 b 428 244 437 237 433 241 b 412 253 424 247 419 250 b 394 262 405 257 399 259 b 372 270 389 264 381 267 b 349 278 363 273 355 276 b 322 285 342 280 333 282 b 296 293 311 289 302 291 b 216 322 264 302 238 312 b 147 362 194 331 171 345 b 92 427 123 379 105 401 b 74 519 80 453 74 484 b 151 692 74 593 100 650 b 346 756 203 734 268 756 b 624 669 446 756 538 727 l 543 524 b 342 593 464 570 397 593 b 264 539 290 593 264 575 b 392 458 264 514 306 487 b 415 450 402 455 410 452 b 479 426 440 442 462 434 b 539 396 497 419 517 409 b 592 355 561 383 579 369 b 626 300 606 341 617 322 b 640 226 636 278 640 253 b 562 47 640 147 614 87 b 356 -14 509 6 441 -14 "},"t":{"ha":576,"x_min":0,"x_max":0,"o":"m 346 -12 b 185 38 276 -12 223 4 b 129 211 148 72 129 130 l 129 564 l 40 564 l 40 744 l 129 744 l 129 935 l 340 935 l 340 744 l 515 744 l 515 564 l 340 564 l 340 246 b 408 174 340 198 363 174 b 513 200 445 174 480 182 l 513 31 b 346 -12 464 2 409 -12 "},"u":{"ha":865,"x_min":0,"x_max":0,"o":"m 342 -14 b 156 60 262 -14 200 11 b 89 263 111 109 89 176 l 89 744 l 300 744 l 300 329 b 333 217 300 280 311 243 b 428 178 356 191 387 178 b 524 217 469 178 501 191 b 560 329 548 243 560 280 l 560 744 l 771 744 l 771 0 l 560 0 l 560 106 b 342 -14 498 26 425 -14 "},"v":{"ha":833,"x_min":0,"x_max":0,"o":"m 28 744 l 251 744 l 418 246 l 586 744 l 806 744 l 513 -6 l 321 -6 "},"w":{"ha":1196,"x_min":0,"x_max":0,"o":"m 33 744 l 247 744 l 367 293 l 507 747 l 689 747 l 831 292 l 953 744 l 1163 744 l 931 -6 l 740 -6 l 597 451 l 451 -6 l 263 -6 "},"x":{"ha":811,"x_min":0,"x_max":0,"o":"m 293 378 l 42 744 l 268 744 l 407 528 l 547 744 l 768 744 l 517 382 l 779 0 l 553 0 l 403 232 l 253 0 l 32 0 "},"y":{"ha":833,"x_min":0,"x_max":0,"o":"m 272 -226 b 85 -175 206 -226 143 -209 l 156 -22 b 246 -51 188 -42 218 -51 b 319 -3 279 -51 304 -35 l 28 744 l 251 744 l 421 238 l 583 744 l 803 744 l 517 -18 b 419 -180 488 -95 456 -149 b 272 -226 383 -211 334 -226 "},"z":{"ha":782,"x_min":0,"x_max":0,"o":"m 69 149 l 454 574 l 82 574 l 82 744 l 717 744 l 717 596 l 331 171 l 717 171 l 717 0 l 69 0 "},"{":{"ha":681,"x_min":0,"x_max":0,"o":"m 578 -196 b 324 -99 456 -175 371 -142 b 253 79 276 -55 253 4 b 255 126 253 86 253 101 b 257 175 256 150 257 167 b 222 287 257 229 245 266 b 104 318 199 308 160 318 l 68 318 l 68 479 l 104 479 b 222 510 160 479 199 490 b 257 622 245 531 257 569 b 255 672 257 631 256 647 b 253 718 253 696 253 712 b 324 896 253 793 276 852 b 578 993 371 939 456 972 l 615 853 b 478 788 545 832 499 811 b 446 688 456 766 446 732 b 448 637 446 678 447 661 b 450 585 449 612 450 595 b 306 399 450 492 402 430 b 450 213 402 367 450 305 b 448 160 450 202 449 185 b 446 110 447 136 446 119 b 478 9 446 65 456 32 b 615 -56 499 -14 545 -35 l 578 -196 "},"|":{"ha":486,"x_min":0,"x_max":0,"o":"m 160 1108 l 326 1108 l 326 -178 l 160 -178 "},"}":{"ha":681,"x_min":0,"x_max":0,"o":"m 65 -56 b 203 9 136 -35 181 -14 b 235 110 224 32 235 65 b 233 160 235 119 234 136 b 231 213 231 185 231 202 b 375 399 231 305 279 367 b 231 585 279 430 231 492 b 233 637 231 595 231 612 b 235 688 234 661 235 678 b 203 788 235 732 224 766 b 65 853 181 811 136 832 l 103 993 b 357 896 225 972 310 939 b 428 718 404 852 428 793 b 426 672 428 712 427 696 b 424 622 424 647 424 631 b 458 510 424 569 435 531 b 576 479 481 490 521 479 l 613 479 l 613 318 l 576 318 b 458 287 521 318 481 308 b 424 175 435 266 424 229 b 426 126 424 167 424 150 b 428 79 427 101 428 86 b 357 -99 428 4 404 -55 b 103 -196 310 -142 225 -175 "},"~":{"ha":708,"x_min":0,"x_max":0,"o":"m 68 346 b 133 490 86 410 107 458 b 240 538 159 522 195 538 b 358 510 272 538 311 528 b 449 483 404 492 435 483 b 495 499 469 483 484 489 b 528 551 506 510 517 527 l 640 517 b 575 373 623 453 601 405 b 468 325 549 341 513 325 b 351 352 437 325 397 334 b 260 379 304 370 274 379 b 213 363 239 379 224 374 b 181 311 203 353 192 335 "}," ":{"ha":417,"x_min":0,"x_max":0,"o":""},"¡":{"ha":450,"x_min":0,"x_max":0,"o":"m 113 972 l 338 972 l 338 750 l 113 750 m 101 28 l 167 642 l 283 642 l 349 28 l 349 0 l 101 0 "},"¢":{"ha":807,"x_min":0,"x_max":0,"o":"m 315 128 b 134 269 240 156 180 203 b 65 493 88 335 65 410 b 176 768 65 601 102 693 b 454 881 250 843 343 881 l 463 881 l 482 981 l 626 981 l 603 858 b 753 756 657 840 707 806 l 628 621 b 560 674 603 646 580 663 l 483 289 b 633 367 534 295 584 321 l 753 246 b 456 106 671 155 572 108 l 433 -8 l 289 -8 m 433 699 b 315 635 385 695 346 674 b 269 493 285 596 269 549 b 358 314 269 410 299 350 "},"£":{"ha":894,"x_min":0,"x_max":0,"o":"m 83 140 l 189 175 l 189 371 l 83 371 l 83 547 l 189 547 l 189 660 b 272 897 189 763 217 842 b 518 986 331 956 413 986 b 831 826 648 986 752 933 l 668 696 b 597 766 643 728 619 752 b 521 788 575 780 550 788 b 442 757 488 788 462 777 b 406 654 418 733 406 699 l 406 547 l 722 547 l 722 371 l 406 371 l 406 185 l 828 185 l 828 0 l 83 0 "},"¤":{"ha":1000,"x_min":0,"x_max":0,"o":"m 607 -17 b 344 69 503 -17 416 12 b 196 301 273 126 224 203 l 68 301 l 68 442 l 172 442 b 171 486 171 451 171 466 b 172 536 171 508 171 525 l 68 536 l 68 676 l 199 676 b 349 903 228 771 278 847 b 603 989 419 960 504 989 b 803 943 683 989 750 974 b 944 811 857 913 904 869 l 783 689 b 699 772 756 726 728 753 b 599 799 671 790 638 799 b 421 676 518 799 459 758 l 678 676 l 678 536 l 389 536 b 388 486 388 526 388 509 b 389 442 388 466 388 451 l 678 442 l 678 301 l 419 301 b 607 174 457 216 520 174 b 704 200 645 174 677 182 b 794 288 731 218 761 247 l 947 175 b 800 33 903 113 854 66 b 607 -17 746 0 682 -17 "},"¥":{"ha":953,"x_min":0,"x_max":0,"o":"m 374 128 l 118 128 l 118 278 l 374 278 l 374 364 l 118 364 l 118 514 l 317 514 l 19 972 l 265 972 l 479 613 l 694 972 l 933 972 l 633 514 l 835 514 l 835 364 l 579 364 l 579 278 l 835 278 l 835 128 l 579 128 l 579 0 l 374 0 "},"¦":{"ha":308,"x_min":0,"x_max":0,"o":"m 56 571 l 56 918 l 253 918 l 253 571 m 56 -124 l 56 224 l 253 224 l 253 -124 "},"§":{"ha":878,"x_min":0,"x_max":0,"o":"m 451 -14 b 128 118 316 -14 208 30 l 242 232 b 446 140 308 171 376 140 b 538 193 507 140 538 158 b 506 234 538 210 527 223 b 385 269 485 245 445 256 b 147 353 274 294 194 322 b 76 479 100 384 76 426 b 200 642 76 557 118 611 b 142 771 161 672 142 715 b 217 928 142 838 167 890 b 426 986 268 967 338 986 b 750 854 562 986 669 942 l 636 740 b 432 832 569 801 501 832 b 340 779 371 832 340 814 b 369 740 340 763 350 750 b 493 703 389 729 430 717 b 731 619 605 678 684 650 b 801 493 778 589 801 547 b 678 331 801 415 760 361 b 736 201 717 300 736 257 b 660 44 736 136 711 83 b 451 -14 610 6 540 -14 m 540 401 b 595 418 563 401 581 407 b 617 465 609 429 617 445 b 584 510 617 483 606 498 b 476 546 562 522 526 534 b 338 571 410 563 363 571 b 283 554 315 571 297 565 b 261 507 268 543 261 527 b 294 463 261 489 272 475 b 401 426 316 450 351 438 b 540 401 468 410 514 401 "},"¨":{"ha":694,"x_min":0,"x_max":0,"o":"m 394 1014 l 597 1014 l 597 826 l 394 826 m 97 1014 l 300 1014 l 300 826 l 97 826 "},"©":{"ha":1153,"x_min":0,"x_max":0,"o":"m 575 -17 b 219 131 435 -17 317 32 b 74 486 122 229 74 347 b 221 841 74 624 123 742 b 578 989 319 940 438 989 b 933 842 718 989 836 940 b 1079 486 1031 744 1079 625 b 932 131 1079 348 1030 230 b 575 -17 834 33 715 -17 m 575 39 b 892 170 701 39 807 83 b 1021 489 978 258 1021 364 b 894 804 1021 613 978 718 b 578 933 809 890 704 933 b 260 802 452 933 346 890 b 132 483 175 715 132 608 b 259 168 132 359 174 254 b 575 39 344 82 449 39 m 582 217 b 387 297 504 217 439 243 b 308 493 334 350 308 415 b 387 689 308 570 334 635 b 586 769 439 743 506 769 b 797 688 670 769 741 742 l 721 599 b 586 658 676 638 631 658 b 476 610 542 658 505 642 b 433 492 448 578 433 539 b 476 376 433 446 448 408 b 586 328 505 344 542 328 b 724 390 631 328 677 349 l 801 313 b 582 217 742 249 669 217 "},"ª":{"ha":542,"x_min":0,"x_max":0,"o":"m 213 554 b 112 588 172 554 138 566 b 72 682 85 611 72 642 b 117 779 72 725 87 757 b 238 813 146 801 187 813 b 338 796 271 813 304 807 l 338 803 b 249 878 338 853 308 878 b 136 856 213 878 176 870 l 107 943 b 265 976 156 965 209 976 b 404 931 327 976 374 961 b 449 800 434 901 449 857 l 449 563 l 336 563 l 336 607 b 213 554 306 572 264 554 m 68 476 l 454 476 l 454 385 l 68 385 m 247 635 b 313 655 274 635 296 641 b 339 707 330 668 339 686 l 339 728 b 264 743 313 738 288 743 b 185 685 211 743 185 724 b 202 649 185 670 191 658 b 247 635 214 639 229 635 "},"«":{"ha":896,"x_min":0,"x_max":0,"o":"m 435 367 l 435 378 l 668 689 l 829 611 l 649 374 l 829 136 l 668 56 m 57 367 l 57 378 l 290 689 l 451 611 l 271 374 l 451 136 l 290 56 "},"¬":{"ha":889,"x_min":0,"x_max":0,"o":"m 108 572 l 108 761 l 778 761 l 778 336 l 581 336 l 581 572 "},"­":{"ha":567,"x_min":0,"x_max":0,"o":"m 69 532 l 497 532 l 497 329 l 69 329 "},"®":{"ha":1153,"x_min":0,"x_max":0,"o":"m 575 -17 b 219 131 435 -17 317 32 b 74 486 122 229 74 347 b 221 841 74 624 123 742 b 578 989 319 940 438 989 b 933 842 718 989 836 940 b 1079 486 1031 744 1079 625 b 932 131 1079 348 1030 230 b 575 -17 834 33 715 -17 m 575 39 b 892 170 701 39 807 83 b 1021 489 978 258 1021 364 b 894 804 1021 613 978 718 b 578 933 809 890 704 933 b 260 802 452 933 346 890 b 132 483 175 715 132 608 b 259 168 132 359 174 254 b 575 39 344 82 449 39 m 369 768 l 607 768 b 772 710 678 768 733 749 b 817 590 802 680 817 640 b 701 425 817 508 778 453 l 832 233 l 694 233 l 578 406 l 488 406 l 488 233 l 369 233 m 606 507 b 674 528 635 507 658 514 b 697 586 689 543 697 562 b 603 664 697 638 666 664 l 488 664 l 488 507 "},"¯":{"ha":694,"x_min":0,"x_max":0,"o":"m 97 979 l 597 979 l 597 833 l 97 833 "},"°":{"ha":667,"x_min":0,"x_max":0,"o":"m 333 511 b 165 581 269 511 213 534 b 93 747 117 628 93 683 b 165 911 93 810 117 865 b 333 981 213 957 269 981 b 501 910 397 981 453 957 b 574 744 550 864 574 808 b 501 581 574 681 550 627 b 333 511 453 534 397 511 m 333 615 b 424 654 369 615 400 628 b 461 747 449 680 461 711 b 424 838 461 782 449 813 b 333 876 400 864 369 876 b 242 838 297 876 267 863 b 206 744 218 812 206 781 b 242 653 206 709 218 679 b 333 615 267 628 297 615 "},"±":{"ha":889,"x_min":0,"x_max":0,"o":"m 108 203 l 781 203 l 781 24 l 108 24 m 347 483 l 96 483 l 96 672 l 347 672 l 347 868 l 543 868 l 543 672 l 790 672 l 790 483 l 543 483 l 543 288 l 347 288 "},"²":{"ha":694,"x_min":0,"x_max":0,"o":"m 0 972 l 694 972 l 694 0 l 0 0 m 583 68 l 347 422 l 113 68 m 306 486 l 68 839 l 68 133 m 625 839 l 388 486 l 625 133 m 583 903 l 113 903 l 347 549 "},"³":{"ha":694,"x_min":0,"x_max":0,"o":"m 0 972 l 694 972 l 694 0 l 0 0 m 583 68 l 347 422 l 113 68 m 306 486 l 68 839 l 68 133 m 625 839 l 388 486 l 625 133 m 583 903 l 113 903 l 347 549 "},"´":{"ha":694,"x_min":0,"x_max":0,"o":"m 360 1072 l 542 993 l 364 826 l 203 826 "},"µ":{"ha":872,"x_min":0,"x_max":0,"o":"m 306 -222 l 94 -222 l 94 744 l 306 744 l 306 325 b 342 217 306 283 318 247 b 432 172 366 187 396 172 b 530 215 474 172 506 186 b 565 332 553 243 565 282 l 565 744 l 778 744 l 778 0 l 565 0 l 565 110 b 375 -6 517 33 454 -6 b 306 14 339 -6 316 1 "},"¶":{"ha":819,"x_min":0,"x_max":0,"o":"m 489 319 l 456 319 b 161 403 334 319 236 347 b 49 646 86 459 49 540 b 153 885 49 747 84 826 b 432 972 223 943 316 972 l 703 972 l 703 0 l 489 0 "},"·":{"ha":397,"x_min":0,"x_max":0,"o":"m 86 542 l 311 542 l 311 319 l 86 319 "},"¸":{"ha":694,"x_min":0,"x_max":0,"o":"m 164 -167 l 288 14 l 443 14 l 340 -240 "},"¹":{"ha":694,"x_min":0,"x_max":0,"o":"m 0 972 l 694 972 l 694 0 l 0 0 m 583 68 l 347 422 l 113 68 m 306 486 l 68 839 l 68 133 m 625 839 l 388 486 l 625 133 m 583 903 l 113 903 l 347 549 "},"º":{"ha":542,"x_min":0,"x_max":0,"o":"m 269 553 b 117 614 208 553 158 573 b 57 767 77 655 57 706 b 119 917 57 826 78 876 b 272 979 160 959 211 979 b 424 918 333 979 384 959 b 485 765 465 877 485 826 b 423 615 485 706 464 656 b 269 553 382 573 331 553 m 71 476 l 471 476 l 471 385 l 71 385 m 272 653 b 344 685 302 653 326 664 b 371 767 362 707 371 734 b 342 846 371 797 361 824 b 269 879 323 868 299 879 b 198 847 240 879 216 868 b 171 765 180 825 171 798 b 199 686 171 735 180 708 b 272 653 218 664 243 653 "},"»":{"ha":896,"x_min":0,"x_max":0,"o":"m 444 133 l 625 371 l 444 608 l 606 689 l 839 378 l 839 367 l 606 56 m 67 133 l 247 371 l 67 608 l 228 689 l 461 378 l 461 367 l 228 56 "},"¼":{"ha":694,"x_min":0,"x_max":0,"o":"m 0 972 l 694 972 l 694 0 l 0 0 m 583 68 l 347 422 l 113 68 m 306 486 l 68 839 l 68 133 m 625 839 l 388 486 l 625 133 m 583 903 l 113 903 l 347 549 "},"½":{"ha":694,"x_min":0,"x_max":0,"o":"m 0 972 l 694 972 l 694 0 l 0 0 m 583 68 l 347 422 l 113 68 m 306 486 l 68 839 l 68 133 m 625 839 l 388 486 l 625 133 m 583 903 l 113 903 l 347 549 "},"¾":{"ha":694,"x_min":0,"x_max":0,"o":"m 0 972 l 694 972 l 694 0 l 0 0 m 583 68 l 347 422 l 113 68 m 306 486 l 68 839 l 68 133 m 625 839 l 388 486 l 625 133 m 583 903 l 113 903 l 347 549 "},"¿":{"ha":756,"x_min":0,"x_max":0,"o":"m 303 972 l 528 972 l 528 750 l 303 750 m 388 -12 b 143 63 286 -12 204 13 b 51 275 82 114 51 184 l 51 278 b 325 557 51 427 143 520 l 340 642 l 482 642 l 514 417 l 507 410 b 264 283 345 403 264 361 l 264 281 b 297 208 264 249 275 225 b 392 182 319 191 351 182 b 600 278 467 182 536 214 l 728 138 b 388 -12 637 38 524 -12 "},"À":{"ha":1097,"x_min":0,"x_max":0,"o":"m 450 979 l 647 979 l 1064 0 l 840 0 l 751 218 l 340 218 l 251 0 l 33 0 m 675 407 l 546 722 l 417 407 m 299 1215 l 481 1294 l 638 1049 l 476 1049 "},"Á":{"ha":1097,"x_min":0,"x_max":0,"o":"m 450 979 l 647 979 l 1064 0 l 840 0 l 751 218 l 340 218 l 251 0 l 33 0 m 675 407 l 546 722 l 417 407 m 617 1294 l 799 1215 l 621 1049 l 460 1049 "},"Â":{"ha":1097,"x_min":0,"x_max":0,"o":"m 450 979 l 647 979 l 1064 0 l 840 0 l 751 218 l 340 218 l 251 0 l 33 0 m 675 407 l 546 722 l 417 407 m 449 1267 l 649 1267 l 819 1049 l 657 1049 l 547 1140 l 438 1049 l 278 1049 "},"Ã":{"ha":1097,"x_min":0,"x_max":0,"o":"m 450 979 l 647 979 l 1064 0 l 840 0 l 751 218 l 340 218 l 251 0 l 33 0 m 675 407 l 546 722 l 417 407 m 263 1069 b 328 1213 280 1133 302 1181 b 435 1261 354 1245 389 1261 b 552 1234 466 1261 505 1252 b 643 1207 599 1216 629 1207 b 690 1223 663 1207 679 1212 b 722 1275 700 1234 711 1251 l 835 1240 b 769 1097 817 1176 795 1128 b 663 1049 744 1065 708 1049 b 545 1076 631 1049 592 1058 b 454 1103 498 1094 468 1103 b 408 1087 434 1103 418 1097 b 375 1035 397 1076 386 1059 "},"Ä":{"ha":1097,"x_min":0,"x_max":0,"o":"m 450 979 l 647 979 l 1064 0 l 840 0 l 751 218 l 340 218 l 251 0 l 33 0 m 675 407 l 546 722 l 417 407 m 596 1236 l 799 1236 l 799 1049 l 596 1049 m 299 1236 l 501 1236 l 501 1049 l 299 1049 "},"Å":{"ha":1097,"x_min":0,"x_max":0,"o":"m 439 954 b 381 1075 400 988 381 1029 l 381 1078 b 431 1191 381 1121 397 1159 b 549 1239 465 1223 504 1239 b 666 1191 593 1239 632 1223 b 717 1078 700 1159 717 1121 l 717 1075 b 658 954 717 1029 697 988 l 1064 0 l 840 0 l 751 218 l 340 218 l 251 0 l 33 0 m 549 990 b 609 1015 572 990 592 999 b 635 1075 626 1032 635 1052 l 635 1078 b 609 1138 635 1101 626 1121 b 549 1163 592 1154 572 1163 b 488 1138 525 1163 505 1154 b 463 1078 471 1121 463 1101 l 463 1075 b 488 1015 463 1052 471 1032 b 549 990 505 999 525 990 m 675 407 l 546 722 l 417 407 "},"Æ":{"ha":1451,"x_min":0,"x_max":0,"o":"m 536 972 l 1371 972 l 1371 782 l 885 782 l 885 585 l 1308 585 l 1308 394 l 885 394 l 885 190 l 1378 190 l 1378 0 l 672 0 l 672 218 l 346 218 l 231 0 l 13 0 m 672 407 l 672 788 l 647 788 l 446 407 "},"Ç":{"ha":1025,"x_min":0,"x_max":0,"o":"m 342 -167 l 453 -3 b 179 170 341 23 250 81 b 74 483 109 259 74 364 l 74 486 b 217 843 74 627 121 746 b 581 989 312 940 433 989 b 800 951 667 989 740 976 b 964 839 860 925 915 888 l 828 682 b 579 792 747 755 664 792 b 378 703 499 792 431 762 b 297 489 324 645 297 573 l 297 486 b 377 269 297 401 324 329 b 579 181 430 210 498 181 b 714 208 631 181 676 190 b 835 294 752 227 792 256 l 971 157 b 811 33 921 103 868 62 b 608 -15 755 5 687 -12 l 518 -240 "},"È":{"ha":931,"x_min":0,"x_max":0,"o":"m 117 972 l 850 972 l 850 782 l 329 782 l 329 585 l 788 585 l 788 394 l 329 394 l 329 190 l 857 190 l 857 0 l 117 0 m 263 1215 l 444 1294 l 601 1049 l 440 1049 "},"É":{"ha":931,"x_min":0,"x_max":0,"o":"m 117 972 l 850 972 l 850 782 l 329 782 l 329 585 l 788 585 l 788 394 l 329 394 l 329 190 l 857 190 l 857 0 l 117 0 m 524 1294 l 706 1215 l 528 1049 l 367 1049 "},"Ê":{"ha":931,"x_min":0,"x_max":0,"o":"m 117 972 l 850 972 l 850 782 l 329 782 l 329 585 l 788 585 l 788 394 l 329 394 l 329 190 l 857 190 l 857 0 l 117 0 m 381 1267 l 581 1267 l 751 1049 l 589 1049 l 479 1140 l 369 1049 l 210 1049 "},"Ë":{"ha":931,"x_min":0,"x_max":0,"o":"m 117 972 l 850 972 l 850 782 l 329 782 l 329 585 l 788 585 l 788 394 l 329 394 l 329 190 l 857 190 l 857 0 l 117 0 m 528 1236 l 731 1236 l 731 1049 l 528 1049 m 231 1236 l 433 1236 l 433 1049 l 231 1049 "},"Ì":{"ha":467,"x_min":0,"x_max":0,"o":"m 126 972 l 340 972 l 340 0 l 126 0 m -17 1215 l 165 1294 l 322 1049 l 161 1049 "},"Í":{"ha":467,"x_min":0,"x_max":0,"o":"m 126 972 l 340 972 l 340 0 l 126 0 m 301 1294 l 483 1215 l 306 1049 l 144 1049 "},"Î":{"ha":467,"x_min":0,"x_max":0,"o":"m 126 972 l 340 972 l 340 0 l 126 0 m 133 1267 l 333 1267 l 504 1049 l 342 1049 l 232 1140 l 122 1049 l -37 1049 "},"Ï":{"ha":467,"x_min":0,"x_max":0,"o":"m 126 972 l 340 972 l 340 0 l 126 0 m 281 1236 l 483 1236 l 483 1049 l 281 1049 m -17 1236 l 186 1236 l 186 1049 l -17 1049 "},"Ð":{"ha":1128,"x_min":0,"x_max":0,"o":"m 158 394 l 54 394 l 54 583 l 158 583 l 158 972 l 538 972 b 910 834 689 972 813 926 b 1054 486 1006 742 1054 626 b 909 139 1054 347 1006 231 b 538 0 812 46 688 0 l 158 0 m 538 193 b 750 274 625 193 696 220 b 831 486 804 328 831 399 b 749 697 831 572 803 643 b 538 779 695 752 625 779 l 369 779 l 369 583 l 581 583 l 581 394 l 369 394 l 369 193 "},"Ñ":{"ha":1097,"x_min":0,"x_max":0,"o":"m 117 972 l 314 972 l 769 374 l 769 972 l 981 972 l 981 0 l 799 0 l 328 618 l 328 0 l 117 0 m 263 1069 b 328 1213 280 1133 302 1181 b 435 1261 354 1245 389 1261 b 552 1234 466 1261 505 1252 b 643 1207 599 1216 629 1207 b 690 1223 663 1207 679 1212 b 722 1275 700 1234 711 1251 l 835 1240 b 769 1097 817 1176 795 1128 b 663 1049 744 1065 708 1049 b 545 1076 631 1049 592 1058 b 454 1103 498 1094 468 1103 b 408 1087 434 1103 418 1097 b 375 1035 397 1076 386 1059 "},"Ò":{"ha":1181,"x_min":0,"x_max":0,"o":"m 589 -17 b 220 129 441 -17 318 32 b 74 486 122 226 74 345 b 222 842 74 626 123 745 b 592 989 320 940 444 989 b 960 843 740 989 863 940 b 1107 486 1058 746 1107 627 b 959 130 1107 346 1058 228 b 589 -17 860 32 737 -17 m 592 181 b 801 269 677 181 747 210 b 883 486 856 328 883 400 b 800 703 883 571 856 644 b 589 792 744 762 674 792 b 379 703 504 792 434 762 b 297 486 325 645 297 572 b 381 269 297 401 325 329 b 592 181 436 210 506 181 m 326 1215 l 508 1294 l 665 1049 l 504 1049 "},"Ó":{"ha":1181,"x_min":0,"x_max":0,"o":"m 589 -17 b 220 129 441 -17 318 32 b 74 486 122 226 74 345 b 222 842 74 626 123 745 b 592 989 320 940 444 989 b 960 843 740 989 863 940 b 1107 486 1058 746 1107 627 b 959 130 1107 346 1058 228 b 589 -17 860 32 737 -17 m 592 181 b 801 269 677 181 747 210 b 883 486 856 328 883 400 b 800 703 883 571 856 644 b 589 792 744 762 674 792 b 379 703 504 792 434 762 b 297 486 325 645 297 572 b 381 269 297 401 325 329 b 592 181 436 210 506 181 m 672 1294 l 854 1215 l 676 1049 l 515 1049 "},"Ô":{"ha":1181,"x_min":0,"x_max":0,"o":"m 589 -17 b 220 129 441 -17 318 32 b 74 486 122 226 74 345 b 222 842 74 626 123 745 b 592 989 320 940 444 989 b 960 843 740 989 863 940 b 1107 486 1058 746 1107 627 b 959 130 1107 346 1058 228 b 589 -17 860 32 737 -17 m 592 181 b 801 269 677 181 747 210 b 883 486 856 328 883 400 b 800 703 883 571 856 644 b 589 792 744 762 674 792 b 379 703 504 792 434 762 b 297 486 325 645 297 572 b 381 269 297 401 325 329 b 592 181 436 210 506 181 m 490 1267 l 690 1267 l 861 1049 l 699 1049 l 589 1140 l 479 1049 l 319 1049 "},"Õ":{"ha":1181,"x_min":0,"x_max":0,"o":"m 589 -17 b 220 129 441 -17 318 32 b 74 486 122 226 74 345 b 222 842 74 626 123 745 b 592 989 320 940 444 989 b 960 843 740 989 863 940 b 1107 486 1058 746 1107 627 b 959 130 1107 346 1058 228 b 589 -17 860 32 737 -17 m 592 181 b 801 269 677 181 747 210 b 883 486 856 328 883 400 b 800 703 883 571 856 644 b 589 792 744 762 674 792 b 379 703 504 792 434 762 b 297 486 325 645 297 572 b 381 269 297 401 325 329 b 592 181 436 210 506 181 m 304 1069 b 369 1213 322 1133 344 1181 b 476 1261 395 1245 431 1261 b 594 1234 508 1261 547 1252 b 685 1207 641 1216 671 1207 b 731 1223 705 1207 721 1212 b 764 1275 742 1234 753 1251 l 876 1240 b 811 1097 859 1176 837 1128 b 704 1049 785 1065 750 1049 b 587 1076 673 1049 634 1058 b 496 1103 540 1094 510 1103 b 449 1087 475 1103 460 1097 b 417 1035 439 1076 428 1059 "},"Ö":{"ha":1181,"x_min":0,"x_max":0,"o":"m 589 -17 b 220 129 441 -17 318 32 b 74 486 122 226 74 345 b 222 842 74 626 123 745 b 592 989 320 940 444 989 b 960 843 740 989 863 940 b 1107 486 1058 746 1107 627 b 959 130 1107 346 1058 228 b 589 -17 860 32 737 -17 m 592 181 b 801 269 677 181 747 210 b 883 486 856 328 883 400 b 800 703 883 571 856 644 b 589 792 744 762 674 792 b 379 703 504 792 434 762 b 297 486 325 645 297 572 b 381 269 297 401 325 329 b 592 181 436 210 506 181 m 638 1236 l 840 1236 l 840 1049 l 638 1049 m 340 1236 l 543 1236 l 543 1049 l 340 1049 "},"×":{"ha":889,"x_min":0,"x_max":0,"o":"m 671 124 l 443 350 l 217 124 l 79 260 l 307 488 l 79 715 l 217 851 l 443 625 l 671 851 l 808 715 l 581 488 l 808 260 "},"Ø":{"ha":1181,"x_min":0,"x_max":0,"o":"m 589 -17 b 321 53 490 -17 400 6 l 267 -7 l 63 -7 l 199 150 b 74 486 115 244 74 356 b 222 842 74 626 123 745 b 592 989 320 940 444 989 b 860 919 691 989 780 966 l 914 979 l 1118 979 l 982 821 b 1107 486 1065 729 1107 618 b 959 130 1107 346 1058 228 b 589 -17 860 32 737 -17 m 726 763 b 589 796 684 785 638 796 b 377 706 504 796 433 766 b 293 486 321 647 293 573 b 340 315 293 424 309 367 m 592 176 b 803 266 677 176 747 206 b 888 486 859 326 888 399 b 840 657 888 548 872 605 l 454 210 b 592 176 497 188 543 176 "},"Ù":{"ha":1050,"x_min":0,"x_max":0,"o":"m 522 -15 b 213 95 390 -15 287 22 b 101 417 138 169 101 276 l 101 972 l 315 972 l 315 422 b 370 244 315 344 334 285 b 525 182 407 203 458 182 b 680 242 592 182 643 202 b 735 415 716 281 735 339 l 735 972 l 949 972 l 949 424 b 835 96 949 279 911 170 b 522 -15 760 22 656 -15 m 282 1208 l 464 1288 l 621 1042 l 460 1042 "},"Ú":{"ha":1050,"x_min":0,"x_max":0,"o":"m 522 -15 b 213 95 390 -15 287 22 b 101 417 138 169 101 276 l 101 972 l 315 972 l 315 422 b 370 244 315 344 334 285 b 525 182 407 203 458 182 b 680 242 592 182 643 202 b 735 415 716 281 735 339 l 735 972 l 949 972 l 949 424 b 835 96 949 279 911 170 b 522 -15 760 22 656 -15 m 586 1288 l 768 1208 l 590 1042 l 429 1042 "},"Û":{"ha":1050,"x_min":0,"x_max":0,"o":"m 522 -15 b 213 95 390 -15 287 22 b 101 417 138 169 101 276 l 101 972 l 315 972 l 315 422 b 370 244 315 344 334 285 b 525 182 407 203 458 182 b 680 242 592 182 643 202 b 735 415 716 281 735 339 l 735 972 l 949 972 l 949 424 b 835 96 949 279 911 170 b 522 -15 760 22 656 -15 m 425 1267 l 625 1267 l 796 1049 l 633 1049 l 524 1140 l 414 1049 l 254 1049 "},"Ü":{"ha":1050,"x_min":0,"x_max":0,"o":"m 522 -15 b 213 95 390 -15 287 22 b 101 417 138 169 101 276 l 101 972 l 315 972 l 315 422 b 370 244 315 344 334 285 b 525 182 407 203 458 182 b 680 242 592 182 643 202 b 735 415 716 281 735 339 l 735 972 l 949 972 l 949 424 b 835 96 949 279 911 170 b 522 -15 760 22 656 -15 m 572 1236 l 775 1236 l 775 1049 l 572 1049 m 275 1236 l 478 1236 l 478 1049 l 275 1049 "},"Ý":{"ha":994,"x_min":0,"x_max":0,"o":"m 390 383 l 17 972 l 267 972 l 499 582 l 735 972 l 978 972 l 604 388 l 604 0 l 390 0 m 572 1288 l 754 1208 l 576 1042 l 415 1042 "},"Þ":{"ha":935,"x_min":0,"x_max":0,"o":"m 117 972 l 331 972 l 331 831 l 514 831 b 786 738 629 831 719 800 b 886 494 853 677 886 595 l 886 492 b 775 240 886 383 849 299 b 493 150 701 180 607 150 l 331 150 l 331 0 l 117 0 m 500 340 b 624 382 552 340 593 354 b 669 488 654 410 669 445 l 669 490 b 624 599 669 538 654 574 b 496 638 593 625 550 638 l 331 638 l 331 340 "},"ß":{"ha":861,"x_min":0,"x_max":0,"o":"m 415 156 b 593 286 534 161 593 205 b 544 375 593 322 577 352 b 415 421 511 398 468 413 l 415 560 b 538 735 497 612 538 670 b 508 816 538 769 528 796 b 426 846 488 836 461 846 b 338 808 390 846 361 833 b 304 707 316 782 304 749 l 304 0 l 94 0 l 94 699 b 186 938 94 800 125 880 b 436 1024 247 995 331 1024 b 663 947 532 1024 608 998 b 746 751 718 896 746 831 b 713 618 746 697 735 652 b 619 525 690 584 659 553 b 801 276 741 472 801 389 b 706 72 801 189 769 121 b 444 -3 642 22 555 -3 l 415 -3 "},"à":{"ha":822,"x_min":0,"x_max":0,"o":"m 306 -14 b 123 47 232 -14 172 6 b 50 217 74 88 50 144 b 131 394 50 295 77 355 b 350 454 185 434 258 454 b 532 424 412 454 473 444 l 532 436 b 372 572 532 527 479 572 b 167 532 308 572 240 559 l 114 693 b 403 753 205 733 301 753 b 654 669 515 753 599 725 b 735 432 708 616 735 537 l 735 0 l 531 0 l 531 81 b 306 -14 474 18 399 -14 m 369 132 b 489 169 419 132 458 144 b 535 263 519 193 535 225 l 535 300 b 400 328 495 319 450 328 b 292 301 354 328 318 319 b 254 222 267 283 254 256 b 286 156 254 194 265 172 b 369 132 307 140 335 132 m 175 993 l 357 1072 l 514 826 l 353 826 "},"á":{"ha":822,"x_min":0,"x_max":0,"o":"m 306 -14 b 123 47 232 -14 172 6 b 50 217 74 88 50 144 b 131 394 50 295 77 355 b 350 454 185 434 258 454 b 532 424 412 454 473 444 l 532 436 b 372 572 532 527 479 572 b 167 532 308 572 240 559 l 114 693 b 403 753 205 733 301 753 b 654 669 515 753 599 725 b 735 432 708 616 735 537 l 735 0 l 531 0 l 531 81 b 306 -14 474 18 399 -14 m 369 132 b 489 169 419 132 458 144 b 535 263 519 193 535 225 l 535 300 b 400 328 495 319 450 328 b 292 301 354 328 318 319 b 254 222 267 283 254 256 b 286 156 254 194 265 172 b 369 132 307 140 335 132 m 472 1072 l 654 993 l 476 826 l 315 826 "},"â":{"ha":822,"x_min":0,"x_max":0,"o":"m 306 -14 b 123 47 232 -14 172 6 b 50 217 74 88 50 144 b 131 394 50 295 77 355 b 350 454 185 434 258 454 b 532 424 412 454 473 444 l 532 436 b 372 572 532 527 479 572 b 167 532 308 572 240 559 l 114 693 b 403 753 205 733 301 753 b 654 669 515 753 599 725 b 735 432 708 616 735 537 l 735 0 l 531 0 l 531 81 b 306 -14 474 18 399 -14 m 369 132 b 489 169 419 132 458 144 b 535 263 519 193 535 225 l 535 300 b 400 328 495 319 450 328 b 292 301 354 328 318 319 b 254 222 267 283 254 256 b 286 156 254 194 265 172 b 369 132 307 140 335 132 m 308 1044 l 508 1044 l 679 826 l 517 826 l 407 918 l 297 826 l 138 826 "},"ã":{"ha":822,"x_min":0,"x_max":0,"o":"m 306 -14 b 123 47 232 -14 172 6 b 50 217 74 88 50 144 b 131 394 50 295 77 355 b 350 454 185 434 258 454 b 532 424 412 454 473 444 l 532 436 b 372 572 532 527 479 572 b 167 532 308 572 240 559 l 114 693 b 403 753 205 733 301 753 b 654 669 515 753 599 725 b 735 432 708 616 735 537 l 735 0 l 531 0 l 531 81 b 306 -14 474 18 399 -14 m 369 132 b 489 169 419 132 458 144 b 535 263 519 193 535 225 l 535 300 b 400 328 495 319 450 328 b 292 301 354 328 318 319 b 254 222 267 283 254 256 b 286 156 254 194 265 172 b 369 132 307 140 335 132 m 125 847 b 190 991 143 911 164 959 b 297 1039 216 1023 252 1039 b 415 1012 329 1039 368 1030 b 506 985 461 994 492 985 b 552 1001 526 985 541 990 b 585 1053 563 1011 574 1029 l 697 1018 b 632 874 680 954 658 906 b 525 826 606 842 570 826 b 408 853 494 826 454 835 b 317 881 361 872 331 881 b 270 865 296 881 281 875 b 238 813 259 854 249 837 "},"ä":{"ha":822,"x_min":0,"x_max":0,"o":"m 306 -14 b 123 47 232 -14 172 6 b 50 217 74 88 50 144 b 131 394 50 295 77 355 b 350 454 185 434 258 454 b 532 424 412 454 473 444 l 532 436 b 372 572 532 527 479 572 b 167 532 308 572 240 559 l 114 693 b 403 753 205 733 301 753 b 654 669 515 753 599 725 b 735 432 708 616 735 537 l 735 0 l 531 0 l 531 81 b 306 -14 474 18 399 -14 m 369 132 b 489 169 419 132 458 144 b 535 263 519 193 535 225 l 535 300 b 400 328 495 319 450 328 b 292 301 354 328 318 319 b 254 222 267 283 254 256 b 286 156 254 194 265 172 b 369 132 307 140 335 132 m 456 1014 l 658 1014 l 658 826 l 456 826 m 158 1014 l 361 1014 l 361 826 l 158 826 "},"å":{"ha":822,"x_min":0,"x_max":0,"o":"m 306 -14 b 123 47 232 -14 172 6 b 50 217 74 88 50 144 b 131 394 50 295 77 355 b 350 454 185 434 258 454 b 532 424 412 454 473 444 l 532 436 b 372 572 532 527 479 572 b 167 532 308 572 240 559 l 114 693 b 403 753 205 733 301 753 b 654 669 515 753 599 725 b 735 432 708 616 735 537 l 735 0 l 531 0 l 531 81 b 306 -14 474 18 399 -14 m 369 132 b 489 169 419 132 458 144 b 535 263 519 193 535 225 l 535 300 b 400 328 495 319 450 328 b 292 301 354 328 318 319 b 254 222 267 283 254 256 b 286 156 254 194 265 172 b 369 132 307 140 335 132 m 408 824 b 291 872 364 824 325 840 b 240 985 257 903 240 941 l 240 988 b 291 1101 240 1031 257 1069 b 408 1149 325 1133 364 1149 b 526 1101 453 1149 492 1133 b 576 988 559 1069 576 1031 l 576 985 b 526 872 576 941 559 903 b 408 824 492 840 453 824 m 408 900 b 469 925 431 900 452 908 b 494 985 486 942 494 962 l 494 988 b 469 1047 494 1011 486 1031 b 408 1072 452 1064 431 1072 b 348 1047 385 1072 365 1064 b 322 988 331 1031 322 1011 l 322 985 b 348 925 322 962 331 942 b 408 900 365 908 385 900 "},"æ":{"ha":1321,"x_min":0,"x_max":0,"o":"m 331 -14 b 128 47 248 -14 181 6 b 50 217 76 88 50 144 b 131 394 50 295 77 355 b 350 454 185 434 258 454 b 532 424 412 454 473 444 l 532 436 b 372 572 532 527 479 572 b 167 532 308 572 240 559 l 114 693 b 403 753 205 733 301 753 b 656 658 519 753 604 721 b 901 758 720 725 802 758 b 1100 700 978 758 1044 739 b 1221 553 1156 661 1196 612 b 1258 354 1246 494 1258 427 b 1256 299 1258 343 1257 325 l 738 299 b 800 190 748 251 769 215 b 919 153 831 165 871 153 b 1100 229 985 153 1045 178 l 1221 122 b 917 -17 1146 30 1044 -17 b 633 96 801 -17 706 21 b 331 -14 534 23 433 -14 m 1053 431 b 1002 546 1046 479 1029 517 b 896 589 975 575 939 589 b 790 547 853 589 818 575 b 735 431 761 518 743 480 m 369 135 b 560 206 435 135 499 158 b 533 301 546 238 537 270 b 400 328 492 319 447 328 b 292 301 354 328 318 319 b 254 222 267 283 254 256 b 288 158 254 195 265 174 b 369 135 310 143 337 135 "},"ç":{"ha":793,"x_min":0,"x_max":0,"o":"m 214 -167 l 328 0 b 133 138 247 24 182 70 b 58 368 83 205 58 282 l 58 371 b 169 645 58 478 95 570 b 449 758 244 721 337 758 b 746 633 573 758 672 717 l 617 494 b 447 576 565 549 508 576 b 318 517 395 576 352 556 b 267 374 284 477 267 429 l 267 371 b 319 224 267 313 284 264 b 456 165 353 185 399 165 b 626 244 514 165 571 192 l 750 119 b 481 -15 673 36 583 -9 l 390 -240 "},"è":{"ha":851,"x_min":0,"x_max":0,"o":"m 447 -17 b 168 91 334 -17 241 19 b 58 371 95 163 58 256 b 163 646 58 479 93 571 b 426 758 232 721 320 758 b 696 642 544 758 634 719 b 789 354 758 564 789 468 b 786 299 789 343 788 325 l 268 299 b 331 190 278 251 299 215 b 450 153 362 165 402 153 b 631 229 516 153 576 178 l 751 122 b 447 -17 676 30 575 -17 m 583 431 b 533 546 577 479 560 517 b 426 589 505 575 470 589 b 320 547 384 589 348 575 b 265 431 292 518 274 480 m 169 993 l 351 1072 l 508 826 l 347 826 "},"é":{"ha":851,"x_min":0,"x_max":0,"o":"m 447 -17 b 168 91 334 -17 241 19 b 58 371 95 163 58 256 b 163 646 58 479 93 571 b 426 758 232 721 320 758 b 696 642 544 758 634 719 b 789 354 758 564 789 468 b 786 299 789 343 788 325 l 268 299 b 331 190 278 251 299 215 b 450 153 362 165 402 153 b 631 229 516 153 576 178 l 751 122 b 447 -17 676 30 575 -17 m 583 431 b 533 546 577 479 560 517 b 426 589 505 575 470 589 b 320 547 384 589 348 575 b 265 431 292 518 274 480 m 499 1072 l 681 993 l 503 826 l 342 826 "},"ê":{"ha":851,"x_min":0,"x_max":0,"o":"m 447 -17 b 168 91 334 -17 241 19 b 58 371 95 163 58 256 b 163 646 58 479 93 571 b 426 758 232 721 320 758 b 696 642 544 758 634 719 b 789 354 758 564 789 468 b 786 299 789 343 788 325 l 268 299 b 331 190 278 251 299 215 b 450 153 362 165 402 153 b 631 229 516 153 576 178 l 751 122 b 447 -17 676 30 575 -17 m 583 431 b 533 546 577 479 560 517 b 426 589 505 575 470 589 b 320 547 384 589 348 575 b 265 431 292 518 274 480 m 325 1044 l 525 1044 l 696 826 l 533 826 l 424 918 l 314 826 l 154 826 "},"ë":{"ha":851,"x_min":0,"x_max":0,"o":"m 447 -17 b 168 91 334 -17 241 19 b 58 371 95 163 58 256 b 163 646 58 479 93 571 b 426 758 232 721 320 758 b 696 642 544 758 634 719 b 789 354 758 564 789 468 b 786 299 789 343 788 325 l 268 299 b 331 190 278 251 299 215 b 450 153 362 165 402 153 b 631 229 516 153 576 178 l 751 122 b 447 -17 676 30 575 -17 m 583 431 b 533 546 577 479 560 517 b 426 589 505 575 470 589 b 320 547 384 589 348 575 b 265 431 292 518 274 480 m 472 1014 l 675 1014 l 675 826 l 472 826 m 175 1014 l 378 1014 l 378 826 l 175 826 "},"ì":{"ha":419,"x_min":0,"x_max":0,"o":"m 104 744 l 315 744 l 315 0 l 104 0 m -37 993 l 144 1072 l 301 826 l 140 826 "},"í":{"ha":419,"x_min":0,"x_max":0,"o":"m 104 744 l 315 744 l 315 0 l 104 0 m 275 1072 l 457 993 l 279 826 l 118 826 "},"î":{"ha":419,"x_min":0,"x_max":0,"o":"m 104 744 l 315 744 l 315 0 l 104 0 m 110 1044 l 310 1044 l 481 826 l 318 826 l 208 918 l 99 826 l -61 826 "},"ï":{"ha":419,"x_min":0,"x_max":0,"o":"m 104 744 l 315 744 l 315 0 l 104 0 m 257 1014 l 460 1014 l 460 826 l 257 826 m -40 1014 l 163 1014 l 163 826 l -40 826 "},"ð":{"ha":900,"x_min":0,"x_max":0,"o":"m 443 -17 b 168 89 333 -17 241 19 b 58 350 95 159 58 246 b 147 585 58 446 88 525 b 376 675 206 645 283 675 b 547 631 435 675 492 660 l 426 792 l 268 726 l 190 831 l 350 894 l 261 1014 l 499 1014 l 531 968 l 669 1025 l 746 921 l 604 864 l 717 704 b 810 533 760 642 791 585 b 839 364 829 480 839 424 b 732 93 839 256 803 166 b 443 -17 661 20 564 -17 m 450 161 b 583 213 506 161 550 178 b 633 346 617 248 633 292 b 582 474 633 397 616 439 b 449 525 548 508 503 525 b 315 474 393 525 348 508 b 264 343 281 441 264 397 b 316 213 264 291 281 248 b 450 161 351 178 395 161 "},"ñ":{"ha":865,"x_min":0,"x_max":0,"o":"m 94 744 l 306 744 l 306 639 b 524 758 368 719 440 758 b 710 685 603 758 665 734 b 776 482 754 636 776 568 l 776 0 l 565 0 l 565 415 b 532 528 565 464 554 502 b 438 567 510 554 478 567 b 341 528 397 567 365 554 b 306 415 317 502 306 464 l 306 0 l 94 0 m 153 847 b 218 991 170 911 192 959 b 325 1039 244 1023 280 1039 b 442 1012 356 1039 396 1030 b 533 985 489 994 519 985 b 580 1001 554 985 569 990 b 613 1053 591 1011 601 1029 l 725 1018 b 660 874 707 954 686 906 b 553 826 634 842 598 826 b 435 853 521 826 482 835 b 344 881 389 872 358 881 b 298 865 324 881 309 875 b 265 813 287 854 276 837 "},"ò":{"ha":922,"x_min":0,"x_max":0,"o":"m 460 -17 b 173 95 345 -17 249 21 b 58 371 97 170 58 262 b 174 646 58 479 97 571 b 463 758 252 721 348 758 b 749 647 577 758 673 721 b 864 371 826 572 864 480 b 748 96 864 263 825 171 b 460 -17 671 21 575 -17 m 463 165 b 603 224 521 165 568 185 b 656 371 638 264 656 313 b 601 516 656 427 637 476 b 460 576 564 556 517 576 b 319 517 401 576 355 557 b 267 371 284 478 267 429 b 322 226 267 314 285 266 b 463 165 358 185 405 165 m 203 993 l 385 1072 l 542 826 l 381 826 "},"ó":{"ha":922,"x_min":0,"x_max":0,"o":"m 460 -17 b 173 95 345 -17 249 21 b 58 371 97 170 58 262 b 174 646 58 479 97 571 b 463 758 252 721 348 758 b 749 647 577 758 673 721 b 864 371 826 572 864 480 b 748 96 864 263 825 171 b 460 -17 671 21 575 -17 m 463 165 b 603 224 521 165 568 185 b 656 371 638 264 656 313 b 601 516 656 427 637 476 b 460 576 564 556 517 576 b 319 517 401 576 355 557 b 267 371 284 478 267 429 b 322 226 267 314 285 266 b 463 165 358 185 405 165 m 538 1072 l 719 993 l 542 826 l 381 826 "},"ô":{"ha":922,"x_min":0,"x_max":0,"o":"m 460 -17 b 173 95 345 -17 249 21 b 58 371 97 170 58 262 b 174 646 58 479 97 571 b 463 758 252 721 348 758 b 749 647 577 758 673 721 b 864 371 826 572 864 480 b 748 96 864 263 825 171 b 460 -17 671 21 575 -17 m 463 165 b 603 224 521 165 568 185 b 656 371 638 264 656 313 b 601 516 656 427 637 476 b 460 576 564 556 517 576 b 319 517 401 576 355 557 b 267 371 284 478 267 429 b 322 226 267 314 285 266 b 463 165 358 185 405 165 m 361 1044 l 561 1044 l 732 826 l 569 826 l 460 918 l 350 826 l 190 826 "},"õ":{"ha":922,"x_min":0,"x_max":0,"o":"m 460 -17 b 173 95 345 -17 249 21 b 58 371 97 170 58 262 b 174 646 58 479 97 571 b 463 758 252 721 348 758 b 749 647 577 758 673 721 b 864 371 826 572 864 480 b 748 96 864 263 825 171 b 460 -17 671 21 575 -17 m 463 165 b 603 224 521 165 568 185 b 656 371 638 264 656 313 b 601 516 656 427 637 476 b 460 576 564 556 517 576 b 319 517 401 576 355 557 b 267 371 284 478 267 429 b 322 226 267 314 285 266 b 463 165 358 185 405 165 m 175 847 b 240 991 193 911 214 959 b 347 1039 266 1023 302 1039 b 465 1012 379 1039 418 1030 b 556 985 511 994 542 985 b 602 1001 576 985 591 990 b 635 1053 613 1011 624 1029 l 747 1018 b 682 874 730 954 708 906 b 575 826 656 842 620 826 b 458 853 544 826 504 835 b 367 881 411 872 381 881 b 320 865 346 881 331 875 b 288 813 309 854 299 837 "},"ö":{"ha":922,"x_min":0,"x_max":0,"o":"m 460 -17 b 173 95 345 -17 249 21 b 58 371 97 170 58 262 b 174 646 58 479 97 571 b 463 758 252 721 348 758 b 749 647 577 758 673 721 b 864 371 826 572 864 480 b 748 96 864 263 825 171 b 460 -17 671 21 575 -17 m 463 165 b 603 224 521 165 568 185 b 656 371 638 264 656 313 b 601 516 656 427 637 476 b 460 576 564 556 517 576 b 319 517 401 576 355 557 b 267 371 284 478 267 429 b 322 226 267 314 285 266 b 463 165 358 185 405 165 m 508 1014 l 711 1014 l 711 826 l 508 826 m 211 1014 l 414 1014 l 414 826 l 211 826 "},"÷":{"ha":889,"x_min":0,"x_max":0,"o":"m 110 588 l 778 588 l 778 397 l 110 397 m 336 904 l 543 904 l 543 694 l 336 694 m 336 290 l 543 290 l 543 81 l 336 81 "},"ø":{"ha":922,"x_min":0,"x_max":0,"o":"m 460 -17 b 260 32 388 -17 322 0 l 222 -7 l 38 -7 l 149 121 b 58 371 88 191 58 275 b 174 646 58 479 97 571 b 463 758 252 721 348 758 b 661 710 535 758 601 742 l 700 751 l 885 751 b 772 622 849 710 811 667 b 864 371 833 553 864 469 b 748 96 864 263 825 171 b 460 -17 671 21 575 -17 m 539 565 b 460 582 515 576 488 582 b 315 522 400 582 351 562 b 261 371 279 481 261 431 b 283 274 261 338 269 305 m 463 160 b 607 220 523 160 571 180 b 661 371 643 260 661 311 b 639 468 661 404 654 437 l 383 175 b 463 160 408 165 435 160 "},"ù":{"ha":865,"x_min":0,"x_max":0,"o":"m 342 -14 b 156 60 262 -14 200 11 b 89 263 111 109 89 176 l 89 744 l 300 744 l 300 329 b 333 217 300 280 311 243 b 428 178 356 191 387 178 b 524 217 469 178 501 191 b 560 329 548 243 560 280 l 560 744 l 771 744 l 771 0 l 560 0 l 560 106 b 342 -14 498 26 425 -14 m 196 993 l 378 1072 l 535 826 l 374 826 "},"ú":{"ha":865,"x_min":0,"x_max":0,"o":"m 342 -14 b 156 60 262 -14 200 11 b 89 263 111 109 89 176 l 89 744 l 300 744 l 300 329 b 333 217 300 280 311 243 b 428 178 356 191 387 178 b 524 217 469 178 501 191 b 560 329 548 243 560 280 l 560 744 l 771 744 l 771 0 l 560 0 l 560 106 b 342 -14 498 26 425 -14 m 486 1072 l 668 993 l 490 826 l 329 826 "},"û":{"ha":865,"x_min":0,"x_max":0,"o":"m 342 -14 b 156 60 262 -14 200 11 b 89 263 111 109 89 176 l 89 744 l 300 744 l 300 329 b 333 217 300 280 311 243 b 428 178 356 191 387 178 b 524 217 469 178 501 191 b 560 329 548 243 560 280 l 560 744 l 771 744 l 771 0 l 560 0 l 560 106 b 342 -14 498 26 425 -14 m 332 1044 l 532 1044 l 703 826 l 540 826 l 431 918 l 321 826 l 161 826 "},"ü":{"ha":865,"x_min":0,"x_max":0,"o":"m 342 -14 b 156 60 262 -14 200 11 b 89 263 111 109 89 176 l 89 744 l 300 744 l 300 329 b 333 217 300 280 311 243 b 428 178 356 191 387 178 b 524 217 469 178 501 191 b 560 329 548 243 560 280 l 560 744 l 771 744 l 771 0 l 560 0 l 560 106 b 342 -14 498 26 425 -14 m 479 1014 l 682 1014 l 682 826 l 479 826 m 182 1014 l 385 1014 l 385 826 l 182 826 "},"ý":{"ha":833,"x_min":0,"x_max":0,"o":"m 272 -226 b 85 -175 206 -226 143 -209 l 156 -22 b 246 -51 188 -42 218 -51 b 319 -3 279 -51 304 -35 l 28 744 l 251 744 l 421 238 l 583 744 l 803 744 l 517 -18 b 419 -180 488 -95 456 -149 b 272 -226 383 -211 334 -226 m 475 1072 l 657 993 l 479 826 l 318 826 "},"þ":{"ha":938,"x_min":0,"x_max":0,"o":"m 94 1014 l 306 1014 l 306 638 b 538 758 365 718 442 758 b 776 655 630 758 710 724 b 876 374 843 586 876 492 l 876 371 b 777 90 876 252 843 159 b 538 -14 711 21 631 -14 b 306 97 445 -14 368 23 l 306 -222 l 94 -222 m 483 165 b 613 222 534 165 577 184 b 665 371 648 260 665 310 l 665 374 b 613 522 665 434 648 483 b 483 579 577 560 534 579 b 355 522 432 579 390 560 b 303 374 320 483 303 434 l 303 371 b 355 223 303 311 320 261 b 483 165 390 184 432 165 "},"ÿ":{"ha":833,"x_min":0,"x_max":0,"o":"m 272 -226 b 85 -175 206 -226 143 -209 l 156 -22 b 246 -51 188 -42 218 -51 b 319 -3 279 -51 304 -35 l 28 744 l 251 744 l 421 238 l 583 744 l 803 744 l 517 -18 b 419 -180 488 -95 456 -149 b 272 -226 383 -211 334 -226 m 464 1014 l 667 1014 l 667 826 l 464 826 m 167 1014 l 369 1014 l 369 826 l 167 826 "},"ı":{"ha":419,"x_min":0,"x_max":0,"o":"m 104 744 l 315 744 l 315 0 l 104 0 "},"Ł":{"ha":901,"x_min":0,"x_max":0,"o":"m 158 364 l 54 333 l 54 532 l 158 563 l 158 972 l 369 972 l 369 626 l 636 706 l 636 507 l 369 428 l 369 194 l 857 194 l 857 0 l 158 0 "},"ł":{"ha":503,"x_min":0,"x_max":0,"o":"m 147 389 l 42 357 l 42 556 l 147 588 l 147 1014 l 356 1014 l 356 649 l 461 681 l 461 482 l 356 450 l 356 0 l 147 0 "},"Œ":{"ha":1493,"x_min":0,"x_max":0,"o":"m 590 0 b 218 138 438 0 314 46 b 74 486 122 230 74 346 b 219 833 74 625 122 741 b 590 972 316 926 439 972 l 1413 972 l 1413 782 l 926 782 l 926 585 l 1350 585 l 1350 394 l 926 394 l 926 190 l 1419 190 l 1419 0 l 590 0 m 714 193 l 714 779 l 590 779 b 378 698 502 779 431 752 b 297 486 324 644 297 573 b 378 275 297 400 324 330 b 590 193 433 220 503 193 "},"œ":{"ha":1435,"x_min":0,"x_max":0,"o":"m 447 -17 b 173 97 341 -17 249 21 b 58 371 97 172 58 263 b 174 645 58 478 97 570 b 456 758 252 721 345 758 b 736 635 570 758 664 717 b 1010 758 806 717 898 758 b 1279 642 1127 758 1217 719 b 1372 354 1341 564 1372 468 b 1369 299 1372 343 1371 325 l 851 299 b 914 190 862 251 882 215 b 1033 153 945 165 985 153 b 1214 229 1099 153 1159 178 l 1335 122 b 1031 -17 1260 30 1158 -17 b 733 110 907 -17 808 25 b 447 -17 659 25 564 -17 m 1167 431 b 1116 546 1160 479 1143 517 b 1010 589 1089 575 1053 589 b 903 547 967 589 932 575 b 849 431 875 518 857 480 m 456 165 b 591 224 512 165 557 185 b 642 371 625 264 642 313 b 588 516 642 427 624 476 b 453 576 553 556 507 576 b 317 517 396 576 351 556 b 267 371 284 477 267 428 b 320 226 267 314 284 266 b 456 165 356 185 401 165 "},"Š":{"ha":889,"x_min":0,"x_max":0,"o":"m 463 -14 b 50 142 303 -14 166 38 l 176 293 b 467 175 272 214 369 175 b 569 200 510 175 544 183 b 607 269 594 217 607 240 b 568 337 607 297 594 320 b 411 393 542 354 490 373 b 276 434 356 407 311 421 b 178 488 242 447 209 465 b 110 572 147 510 125 538 b 89 693 96 605 89 646 b 184 906 89 781 121 852 b 429 986 247 959 329 986 b 790 863 567 986 688 945 l 679 701 b 426 797 588 765 503 797 b 334 773 387 797 356 789 b 301 710 312 757 301 736 b 342 639 301 678 315 655 b 511 582 369 623 425 604 b 744 475 617 554 694 519 b 819 288 794 431 819 369 b 722 66 819 193 787 119 b 463 -14 656 13 570 -14 m 169 1267 l 332 1267 l 442 1175 l 551 1267 l 711 1267 l 540 1049 l 340 1049 "},"š":{"ha":697,"x_min":0,"x_max":0,"o":"m 356 -14 b 36 99 238 -14 131 24 l 126 238 b 361 149 208 178 286 149 b 450 207 420 149 450 168 b 448 221 450 212 449 216 b 440 233 447 225 444 230 b 428 244 437 237 433 241 b 412 253 424 247 419 250 b 394 262 405 257 399 259 b 372 270 389 264 381 267 b 349 278 363 273 355 276 b 322 285 342 280 333 282 b 296 293 311 289 302 291 b 216 322 264 302 238 312 b 147 362 194 331 171 345 b 92 427 123 379 105 401 b 74 519 80 453 74 484 b 151 692 74 593 100 650 b 346 756 203 734 268 756 b 624 669 446 756 538 727 l 543 524 b 342 593 464 570 397 593 b 264 539 290 593 264 575 b 392 458 264 514 306 487 b 415 450 402 455 410 452 b 479 426 440 442 462 434 b 539 396 497 419 517 409 b 592 355 561 383 579 369 b 626 300 606 341 617 322 b 640 226 636 278 640 253 b 562 47 640 147 614 87 b 356 -14 509 6 441 -14 m 83 1044 l 246 1044 l 356 953 l 465 1044 l 625 1044 l 454 826 l 254 826 "},"Ÿ":{"ha":994,"x_min":0,"x_max":0,"o":"m 390 383 l 17 972 l 267 972 l 499 582 l 735 972 l 978 972 l 604 388 l 604 0 l 390 0 m 544 1236 l 747 1236 l 747 1049 l 544 1049 m 247 1236 l 450 1236 l 450 1049 l 247 1049 "},"Ž":{"ha":983,"x_min":0,"x_max":0,"o":"m 88 163 l 622 785 l 104 785 l 104 972 l 897 972 l 897 810 l 363 188 l 897 188 l 897 0 l 88 0 m 225 1267 l 388 1267 l 497 1175 l 607 1267 l 767 1267 l 596 1049 l 396 1049 "},"ž":{"ha":782,"x_min":0,"x_max":0,"o":"m 69 149 l 454 574 l 82 574 l 82 744 l 717 744 l 717 596 l 331 171 l 717 171 l 717 0 l 69 0 m 131 1044 l 293 1044 l 403 953 l 513 1044 l 672 1044 l 501 826 l 301 826 "},"ƒ":{"ha":744,"x_min":0,"x_max":0,"o":"m 139 -7 b 57 0 106 -7 78 -5 l 57 171 b 108 167 75 168 93 167 b 175 186 138 167 160 173 b 206 251 190 199 200 221 l 244 478 l 151 478 l 151 651 l 275 651 l 294 754 b 376 923 308 829 336 885 b 557 979 417 960 477 979 b 694 963 613 979 659 974 l 694 788 b 600 801 657 797 626 801 b 496 707 542 801 507 770 l 486 651 l 646 651 l 646 478 l 456 478 l 410 218 b 324 45 395 138 366 80 b 139 -7 281 10 219 -7 "},"ˆ":{"ha":694,"x_min":0,"x_max":0,"o":"m 247 1044 l 447 1044 l 618 826 l 456 826 l 346 918 l 236 826 l 76 826 "},"ˇ":{"ha":694,"x_min":0,"x_max":0,"o":"m 76 1044 l 239 1044 l 349 953 l 458 1044 l 618 1044 l 447 826 l 247 826 "},"˘":{"ha":694,"x_min":0,"x_max":0,"o":"m 347 824 b 166 882 273 824 213 843 b 86 1044 119 921 93 975 l 228 1044 b 347 961 246 989 286 961 b 467 1044 408 961 448 989 l 608 1044 b 528 882 602 975 575 921 b 347 824 482 843 421 824 "},"˙":{"ha":694,"x_min":0,"x_max":0,"o":"m 243 1014 l 451 1014 l 451 826 l 243 826 "},"˚":{"ha":694,"x_min":0,"x_max":0,"o":"m 347 824 b 230 872 303 824 264 840 b 179 985 196 903 179 941 l 179 988 b 230 1101 179 1031 196 1069 b 347 1149 264 1133 303 1149 b 465 1101 392 1149 431 1133 b 515 988 498 1069 515 1031 l 515 985 b 465 872 515 941 498 903 b 347 824 431 840 392 824 m 347 900 b 408 925 370 900 391 908 b 433 985 425 942 433 962 l 433 988 b 408 1047 433 1011 425 1031 b 347 1072 391 1064 370 1072 b 287 1047 324 1072 304 1064 b 261 988 270 1031 261 1011 l 261 985 b 287 925 261 962 270 942 b 347 900 304 908 324 900 "},"˛":{"ha":694,"x_min":0,"x_max":0,"o":"m 515 -228 b 310 -199 427 -235 359 -226 b 238 -76 262 -173 238 -132 b 260 14 238 -48 245 -18 l 404 14 b 396 -40 399 -6 396 -24 b 515 -135 396 -99 436 -130 l 515 -228 "},"˜":{"ha":694,"x_min":0,"x_max":0,"o":"m 61 847 b 126 991 79 911 100 959 b 233 1039 152 1023 188 1039 b 351 1012 265 1039 304 1030 b 442 985 397 994 428 985 b 488 1001 462 985 478 990 b 521 1053 499 1011 510 1029 l 633 1018 b 568 874 616 954 594 906 b 461 826 542 842 506 826 b 344 853 430 826 391 835 b 253 881 297 872 267 881 b 206 865 232 881 217 875 b 174 813 196 854 185 837 "},"˝":{"ha":694,"x_min":0,"x_max":0,"o":"m 478 1072 l 656 993 l 475 826 l 321 826 m 204 1072 l 382 993 l 204 826 l 50 826 "},"Ω":{"ha":1089,"x_min":0,"x_max":0,"o":"m 601 0 l 601 289 b 740 378 663 302 709 332 b 788 546 772 425 788 481 b 722 731 788 619 766 681 b 549 807 679 782 621 807 b 371 730 475 807 415 781 b 304 540 326 678 304 615 b 351 376 304 475 320 421 b 488 289 382 331 427 302 l 488 0 l 86 0 l 86 175 l 328 175 l 328 213 b 149 342 251 234 191 277 b 86 564 107 408 86 481 b 219 873 86 693 131 796 b 549 989 308 950 418 989 b 872 874 677 989 785 951 b 1003 567 959 798 1003 695 b 940 341 1003 483 982 408 b 761 213 899 274 839 231 l 761 175 l 1003 175 l 1003 0 "},"π":{"ha":694,"x_min":0,"x_max":0,"o":"m 0 972 l 694 972 l 694 0 l 0 0 m 583 68 l 347 422 l 113 68 m 306 486 l 68 839 l 68 133 m 625 839 l 388 486 l 625 133 m 583 903 l 113 903 l 347 549 "},"Ё":{"ha":931,"x_min":0,"x_max":0,"o":"m 117 972 l 850 972 l 850 782 l 329 782 l 329 585 l 788 585 l 788 394 l 329 394 l 329 190 l 857 190 l 857 0 l 117 0 m 526 1236 l 729 1236 l 729 1049 l 526 1049 m 229 1236 l 432 1236 l 432 1049 l 229 1049 "},"Ђ":{"ha":1206,"x_min":0,"x_max":0,"o":"m 672 199 b 733 193 696 195 717 193 b 897 314 843 193 897 233 b 731 432 897 393 842 432 b 521 354 647 432 577 406 l 521 0 l 308 0 l 308 783 l 44 783 l 44 972 l 868 972 l 868 783 l 521 783 l 521 560 b 785 639 602 613 690 639 b 1026 553 884 639 964 610 b 1118 318 1087 497 1118 418 b 1027 69 1118 209 1088 126 b 785 -15 966 13 886 -15 b 635 8 725 -15 675 -7 "},"Ѓ":{"ha":831,"x_min":0,"x_max":0,"o":"m 331 0 l 117 0 l 117 972 l 796 972 l 796 779 l 331 779 m 458 1294 l 640 1215 l 463 1049 l 301 1049 "},"Є":{"ha":1018,"x_min":0,"x_max":0,"o":"m 701 401 l 303 401 b 402 238 319 335 353 280 b 579 175 452 196 511 175 b 721 203 633 175 680 184 b 846 290 762 222 803 251 l 978 147 b 804 24 926 92 868 50 b 572 -17 740 -3 663 -17 b 216 128 430 -17 311 32 b 74 486 121 225 74 344 b 217 843 74 627 121 746 b 581 989 312 940 433 989 b 951 842 723 989 847 940 l 833 694 b 579 797 756 763 672 797 b 406 737 513 797 456 777 b 304 579 356 697 322 644 l 701 579 "},"Ѕ":{"ha":889,"x_min":0,"x_max":0,"o":"m 463 -14 b 50 142 303 -14 166 38 l 176 293 b 467 175 272 214 369 175 b 569 200 510 175 544 183 b 607 269 594 217 607 240 b 568 337 607 297 594 320 b 411 393 542 354 490 373 b 276 434 356 407 311 421 b 178 488 242 447 209 465 b 110 572 147 510 125 538 b 89 693 96 605 89 646 b 184 906 89 781 121 852 b 429 986 247 959 329 986 b 790 863 567 986 688 945 l 679 701 b 426 797 588 765 503 797 b 334 773 387 797 356 789 b 301 710 312 757 301 736 b 342 639 301 678 315 655 b 511 582 369 623 425 604 b 744 475 617 554 694 519 b 819 288 794 431 819 369 b 722 66 819 193 787 119 b 463 -14 656 13 570 -14 "},"І":{"ha":467,"x_min":0,"x_max":0,"o":"m 126 972 l 340 972 l 340 0 l 126 0 "},"Ї":{"ha":467,"x_min":0,"x_max":0,"o":"m 126 972 l 340 972 l 340 0 l 126 0 m 281 1236 l 483 1236 l 483 1049 l 281 1049 m -17 1236 l 186 1236 l 186 1049 l -17 1049 "},"Ј":{"ha":783,"x_min":0,"x_max":0,"o":"m 338 -14 b 19 132 207 -14 101 35 l 154 282 b 332 185 213 217 273 185 b 463 346 419 185 463 238 l 463 972 l 682 972 l 682 336 b 590 76 682 224 651 138 b 338 -14 530 16 446 -14 "},"Љ":{"ha":1550,"x_min":0,"x_max":0,"o":"m 726 779 l 446 779 l 446 706 b 413 271 446 520 435 375 b 313 51 390 166 357 93 b 131 -12 268 9 207 -12 b 18 0 87 -12 50 -8 l 32 176 b 65 174 45 175 56 174 b 142 194 97 174 122 180 b 198 275 162 207 181 234 b 235 458 215 316 227 377 b 246 771 242 539 246 643 l 246 972 l 940 972 l 940 642 l 1147 642 b 1408 556 1258 642 1345 613 b 1503 326 1471 499 1503 423 b 1403 88 1503 226 1470 147 b 1133 0 1337 29 1247 0 l 726 0 m 940 458 l 940 193 l 1131 193 b 1290 329 1237 193 1290 238 b 1129 458 1290 415 1237 458 "},"Њ":{"ha":1549,"x_min":0,"x_max":0,"o":"m 725 0 l 725 432 l 331 432 l 331 0 l 117 0 l 117 972 l 331 972 l 331 610 l 725 610 l 725 972 l 939 972 l 939 610 l 1160 610 b 1412 528 1268 610 1352 583 b 1501 308 1472 474 1501 401 b 1406 81 1501 210 1469 134 b 1139 0 1342 27 1253 0 m 939 432 l 939 193 l 1139 193 b 1288 317 1238 193 1288 234 b 1138 432 1288 394 1238 432 "},"Ћ":{"ha":1206,"x_min":0,"x_max":0,"o":"m 521 0 l 308 0 l 308 783 l 44 783 l 44 972 l 868 972 l 868 783 l 521 783 l 521 560 b 785 639 602 613 690 639 b 1026 558 884 639 964 612 b 1118 332 1087 505 1118 429 l 1118 0 l 906 0 l 906 242 b 864 383 906 303 892 350 b 740 432 836 416 795 432 b 521 354 650 432 577 406 "},"Ќ":{"ha":1014,"x_min":0,"x_max":0,"o":"m 117 972 l 331 972 l 331 547 l 725 972 l 983 972 l 588 560 l 1001 0 l 744 0 l 443 414 l 331 297 l 331 0 l 117 0 m 578 1294 l 760 1215 l 582 1049 l 421 1049 "},"Ў":{"ha":1019,"x_min":0,"x_max":0,"o":"m 763 972 l 994 972 l 621 221 b 483 40 579 138 533 77 b 303 -15 432 3 372 -15 b 93 42 230 -15 160 4 l 176 199 b 292 167 212 177 250 167 b 414 244 340 167 381 193 l 25 972 l 264 972 l 528 458 m 525 1046 b 367 1101 461 1046 409 1064 b 292 1257 326 1138 301 1190 l 415 1279 b 525 1186 435 1217 471 1186 b 635 1279 579 1186 615 1217 l 758 1257 b 683 1101 749 1190 724 1138 b 525 1046 641 1064 589 1046 "},"Џ":{"ha":1044,"x_min":0,"x_max":0,"o":"m 117 972 l 329 972 l 329 194 l 715 194 l 715 972 l 928 972 l 928 0 l 625 0 l 625 -203 l 418 -203 l 418 0 l 117 0 "},"А":{"ha":1097,"x_min":0,"x_max":0,"o":"m 450 979 l 647 979 l 1064 0 l 840 0 l 751 218 l 340 218 l 251 0 l 33 0 m 675 407 l 546 722 l 417 407 "},"Б":{"ha":989,"x_min":0,"x_max":0,"o":"m 331 610 l 588 610 b 840 528 696 610 780 583 b 929 308 899 474 929 401 b 833 81 929 210 897 134 b 567 0 769 27 681 0 l 117 0 l 117 972 l 863 972 l 863 779 l 331 779 m 331 432 l 331 193 l 567 193 b 715 317 666 193 715 234 b 565 432 715 394 665 432 "},"В":{"ha":1003,"x_min":0,"x_max":0,"o":"m 117 972 l 568 972 b 822 886 680 972 765 944 b 889 718 867 842 889 786 b 761 508 889 626 846 556 b 897 417 821 485 867 455 b 943 267 928 380 943 330 b 846 68 943 180 911 113 b 579 0 781 23 692 0 l 117 0 m 522 579 b 676 685 625 579 676 614 b 640 759 676 717 664 742 b 536 785 616 776 581 785 l 325 785 l 325 579 m 579 188 b 731 296 680 188 731 224 b 572 401 731 366 678 401 l 325 401 l 325 188 "},"Г":{"ha":831,"x_min":0,"x_max":0,"o":"m 331 0 l 117 0 l 117 972 l 796 972 l 796 779 l 331 779 "},"Д":{"ha":1069,"x_min":0,"x_max":0,"o":"m 14 193 l 106 193 b 188 472 144 281 171 374 b 213 858 204 570 213 699 l 213 972 l 919 972 l 919 193 l 1036 193 l 1008 -203 l 829 -203 l 829 0 l 221 0 l 207 -203 l 14 -203 m 418 779 l 418 681 b 331 193 418 497 389 335 l 706 193 l 706 779 "},"Е":{"ha":931,"x_min":0,"x_max":0,"o":"m 117 972 l 850 972 l 850 782 l 329 782 l 329 585 l 788 585 l 788 394 l 329 394 l 329 190 l 857 190 l 857 0 l 117 0 "},"Ж":{"ha":1554,"x_min":0,"x_max":0,"o":"m 671 0 l 671 258 l 542 397 l 268 0 l 13 0 l 397 551 l 26 972 l 281 972 l 671 518 l 671 972 l 883 972 l 883 518 l 1274 972 l 1528 972 l 1157 551 l 1542 0 l 1286 0 l 1011 397 l 883 258 l 883 0 "},"З":{"ha":908,"x_min":0,"x_max":0,"o":"m 463 989 b 716 915 566 989 651 964 b 814 728 781 866 814 804 b 657 504 814 624 762 550 b 839 275 778 465 839 389 b 738 65 839 190 805 120 b 469 -17 671 11 581 -17 b 220 24 370 -17 287 -3 b 38 146 153 50 92 91 l 151 294 b 461 171 236 212 339 171 b 578 202 508 171 547 181 b 625 288 609 223 625 251 b 573 374 625 326 608 355 b 432 401 538 392 491 401 l 319 401 l 319 579 l 429 579 b 603 692 545 579 603 617 b 560 771 603 725 588 751 b 446 800 531 790 493 800 b 183 693 340 800 253 764 l 71 829 b 463 989 173 936 303 989 "},"И":{"ha":1071,"x_min":0,"x_max":0,"o":"m 954 0 l 743 0 l 743 638 l 318 0 l 117 0 l 117 972 l 328 972 l 328 335 l 756 972 l 954 972 "},"Й":{"ha":1071,"x_min":0,"x_max":0,"o":"m 954 0 l 743 0 l 743 638 l 318 0 l 117 0 l 117 972 l 328 972 l 328 335 l 756 972 l 954 972 m 539 1046 b 381 1101 475 1046 422 1064 b 306 1257 340 1138 315 1190 l 429 1279 b 539 1186 449 1217 485 1186 b 649 1279 593 1186 629 1217 l 772 1257 b 697 1101 763 1190 738 1138 b 539 1046 655 1064 603 1046 "},"К":{"ha":1014,"x_min":0,"x_max":0,"o":"m 117 972 l 331 972 l 331 547 l 725 972 l 983 972 l 588 560 l 1001 0 l 744 0 l 443 414 l 331 297 l 331 0 l 117 0 "},"Л":{"ha":1057,"x_min":0,"x_max":0,"o":"m 940 972 l 940 0 l 726 0 l 726 779 l 446 779 l 446 706 b 412 264 446 516 434 369 b 313 47 389 159 356 87 b 131 -12 269 7 208 -12 b 18 0 87 -12 50 -8 l 32 176 b 65 174 45 175 56 174 b 142 194 97 174 122 180 b 198 275 162 207 181 234 b 235 458 215 316 227 377 b 246 771 242 539 246 643 l 246 972 "},"М":{"ha":1206,"x_min":0,"x_max":0,"o":"m 117 972 l 347 972 l 603 561 l 858 972 l 1089 972 l 1089 0 l 876 0 l 876 635 l 603 219 l 597 219 l 326 631 l 326 0 l 117 0 "},"Н":{"ha":1056,"x_min":0,"x_max":0,"o":"m 117 972 l 331 972 l 331 588 l 725 588 l 725 972 l 939 972 l 939 0 l 725 0 l 725 390 l 331 390 l 331 0 l 117 0 "},"О":{"ha":1181,"x_min":0,"x_max":0,"o":"m 589 -17 b 220 129 441 -17 318 32 b 74 486 122 226 74 345 b 222 842 74 626 123 745 b 592 989 320 940 444 989 b 960 843 740 989 863 940 b 1107 486 1058 746 1107 627 b 959 130 1107 346 1058 228 b 589 -17 860 32 737 -17 m 592 181 b 801 269 677 181 747 210 b 883 486 856 328 883 400 b 800 703 883 571 856 644 b 589 792 744 762 674 792 b 379 703 504 792 434 762 b 297 486 325 645 297 572 b 381 269 297 401 325 329 b 592 181 436 210 506 181 "},"П":{"ha":1044,"x_min":0,"x_max":0,"o":"m 117 972 l 928 972 l 928 0 l 714 0 l 714 779 l 331 779 l 331 0 l 117 0 "},"Р":{"ha":928,"x_min":0,"x_max":0,"o":"m 117 972 l 514 972 b 786 879 629 972 719 941 b 886 633 853 817 886 735 b 775 381 886 525 849 441 b 493 292 701 322 607 292 l 331 292 l 331 0 l 117 0 m 500 482 b 624 524 553 482 594 496 b 669 632 654 551 669 588 b 624 741 669 679 654 716 b 496 779 593 766 550 779 l 331 779 l 331 482 "},"С":{"ha":1025,"x_min":0,"x_max":0,"o":"m 572 -17 b 216 128 430 -17 311 32 b 74 486 121 225 74 344 b 217 843 74 627 121 746 b 581 989 312 940 433 989 b 793 948 665 989 736 975 b 957 831 850 921 905 881 l 829 683 b 712 766 788 721 748 749 b 579 792 675 783 631 792 b 377 703 498 792 430 762 b 297 486 324 645 297 572 b 377 269 297 401 324 329 b 579 181 430 210 498 181 b 714 208 631 181 676 190 b 835 294 752 227 792 256 l 971 149 b 799 24 918 92 861 50 b 572 -17 738 -3 662 -17 "},"Т":{"ha":900,"x_min":0,"x_max":0,"o":"m 343 775 l 47 775 l 47 972 l 853 972 l 853 775 l 557 775 l 557 0 l 343 0 "},"У":{"ha":1019,"x_min":0,"x_max":0,"o":"m 763 972 l 994 972 l 621 221 b 483 40 579 138 533 77 b 303 -15 432 3 372 -15 b 93 42 230 -15 160 4 l 176 199 b 292 167 212 177 250 167 b 414 244 340 167 381 193 l 25 972 l 264 972 l 528 458 "},"Ф":{"ha":1294,"x_min":0,"x_max":0,"o":"m 754 257 b 944 322 833 257 896 278 b 1015 494 991 365 1015 422 b 944 666 1015 566 991 623 b 754 731 896 709 833 731 m 540 -39 l 540 67 b 189 188 393 67 276 107 b 58 499 102 269 58 373 b 189 803 58 623 102 724 b 540 921 276 881 393 921 l 540 1010 l 754 1010 l 754 921 b 1105 802 900 921 1017 881 b 1236 497 1192 723 1236 621 b 1106 188 1236 372 1193 269 b 754 67 1019 107 901 67 l 754 -39 m 540 731 b 350 666 462 731 398 709 b 278 494 302 623 278 566 b 350 322 278 422 302 365 b 540 257 398 278 462 257 "},"Х":{"ha":1017,"x_min":0,"x_max":0,"o":"m 382 494 l 57 972 l 307 972 l 511 657 l 717 972 l 960 972 l 635 497 l 974 0 l 724 0 l 506 333 l 286 0 l 43 0 "},"Ц":{"ha":1076,"x_min":0,"x_max":0,"o":"m 838 0 l 117 0 l 117 972 l 331 972 l 331 193 l 714 193 l 714 972 l 928 972 l 928 193 l 1043 193 l 1015 -203 l 838 -203 "},"Ч":{"ha":1011,"x_min":0,"x_max":0,"o":"m 681 363 b 424 290 582 314 497 290 b 185 372 323 290 243 318 b 97 617 126 427 97 508 l 97 972 l 311 972 l 311 679 b 468 490 311 553 363 490 b 681 553 556 490 627 511 l 681 972 l 894 972 l 894 0 l 681 0 "},"Ш":{"ha":1568,"x_min":0,"x_max":0,"o":"m 1451 0 l 117 0 l 117 972 l 331 972 l 331 193 l 676 193 l 676 972 l 890 972 l 890 193 l 1238 193 l 1238 972 l 1451 972 "},"Щ":{"ha":1600,"x_min":0,"x_max":0,"o":"m 1361 0 l 117 0 l 117 972 l 331 972 l 331 193 l 676 193 l 676 972 l 890 972 l 890 193 l 1238 193 l 1238 972 l 1451 972 l 1451 193 l 1567 193 l 1539 -203 l 1361 -203 "},"Ъ":{"ha":1097,"x_min":0,"x_max":0,"o":"m 488 458 l 488 193 l 678 193 b 838 329 784 193 838 238 b 676 458 838 415 784 458 m 488 642 l 694 642 b 956 556 806 642 893 613 b 1050 326 1019 499 1050 423 b 951 88 1050 226 1017 147 b 681 0 884 29 794 0 l 274 0 l 274 779 l 42 779 l 42 972 l 488 972 "},"Ы":{"ha":1332,"x_min":0,"x_max":0,"o":"m 117 972 l 331 972 l 331 642 l 538 642 b 799 556 649 642 736 613 b 893 326 862 499 893 423 b 794 88 893 226 860 147 b 524 0 728 29 638 0 l 117 0 m 331 458 l 331 193 l 521 193 b 681 329 627 193 681 238 b 519 458 681 415 627 458 m 1001 972 l 1215 972 l 1215 0 l 1001 0 "},"Ь":{"ha":940,"x_min":0,"x_max":0,"o":"m 117 972 l 331 972 l 331 642 l 538 642 b 799 556 649 642 736 613 b 893 326 862 499 893 423 b 794 88 893 226 860 147 b 524 0 728 29 638 0 l 117 0 m 331 458 l 331 193 l 521 193 b 681 329 627 193 681 238 b 519 458 681 415 627 458 "},"Э":{"ha":1018,"x_min":0,"x_max":0,"o":"m 317 579 l 714 579 b 613 737 696 644 663 697 b 439 797 563 777 505 797 b 185 694 346 797 262 763 l 67 842 b 438 989 171 940 295 989 b 801 843 585 989 706 940 b 944 486 897 746 944 627 b 802 128 944 344 897 225 b 446 -17 707 32 588 -17 b 214 24 355 -17 278 -3 b 40 147 150 50 92 92 l 172 290 b 297 203 215 251 256 222 b 439 175 338 184 385 175 b 616 238 507 175 566 196 b 715 401 666 280 699 335 l 317 401 "},"Ю":{"ha":1479,"x_min":0,"x_max":0,"o":"m 931 -17 b 620 98 808 -17 705 22 b 464 393 535 174 483 273 l 331 393 l 331 0 l 117 0 l 117 972 l 331 972 l 331 585 l 465 585 b 624 875 486 702 539 799 b 933 989 710 951 813 989 b 1272 844 1070 989 1183 941 b 1406 486 1361 748 1406 629 b 1272 128 1406 344 1361 225 b 931 -17 1182 32 1069 -17 m 933 178 b 1115 265 1007 178 1068 207 b 1185 486 1161 324 1185 397 b 1113 705 1185 573 1161 646 b 931 793 1066 764 1005 793 b 749 706 856 793 796 764 b 679 486 703 648 679 575 b 750 267 679 399 703 326 b 933 178 797 207 858 178 "},"Я":{"ha":1004,"x_min":0,"x_max":0,"o":"m 886 0 l 672 0 l 672 311 l 504 311 l 296 0 l 46 0 l 283 347 b 75 651 144 399 75 500 b 173 887 75 751 108 830 b 442 972 238 944 328 972 l 886 972 m 672 500 l 672 779 l 460 779 b 336 743 407 779 366 767 b 292 638 306 719 292 684 b 335 538 292 596 306 563 b 456 500 365 513 405 500 "},"а":{"ha":822,"x_min":0,"x_max":0,"o":"m 306 -14 b 123 47 232 -14 172 6 b 50 217 74 88 50 144 b 131 394 50 295 77 355 b 350 454 185 434 258 454 b 532 424 412 454 473 444 l 532 436 b 372 572 532 527 479 572 b 167 532 308 572 240 559 l 114 693 b 403 753 205 733 301 753 b 654 669 515 753 599 725 b 735 432 708 616 735 537 l 735 0 l 531 0 l 531 81 b 306 -14 474 18 399 -14 m 369 132 b 489 169 419 132 458 144 b 535 263 519 193 535 225 l 535 300 b 400 328 495 319 450 328 b 292 301 354 328 318 319 b 254 222 267 283 254 256 b 286 156 254 194 265 172 b 369 132 307 140 335 132 "},"б":{"ha":908,"x_min":0,"x_max":0,"o":"m 465 165 b 594 220 518 165 561 184 b 644 357 628 257 644 302 b 592 494 644 411 627 456 b 463 551 558 532 514 551 b 333 495 410 551 367 533 b 283 357 300 458 283 412 b 335 221 283 303 301 258 b 465 165 370 184 413 165 m 463 -17 b 174 98 337 -17 240 22 b 74 428 107 174 74 284 b 79 563 74 479 75 524 b 103 689 83 603 91 644 b 155 803 116 733 133 771 b 247 888 177 834 207 863 b 386 940 286 913 332 930 l 785 1014 l 818 847 l 410 767 b 229 592 297 744 237 685 b 326 677 247 622 279 651 b 500 717 374 703 431 717 b 749 614 596 717 679 682 b 853 360 818 545 853 461 b 742 93 853 255 816 166 b 463 -17 668 20 575 -17 "},"в":{"ha":833,"x_min":0,"x_max":0,"o":"m 503 744 b 684 694 579 744 639 728 b 751 558 729 661 751 616 b 633 390 751 481 712 425 b 779 203 731 361 779 298 b 705 54 779 140 754 90 b 501 0 655 18 588 0 l 94 0 l 94 744 m 451 446 b 517 467 480 446 502 453 b 540 521 533 481 540 499 b 519 569 540 540 533 556 b 454 589 504 582 483 589 l 303 589 l 303 446 m 469 165 b 565 240 533 165 565 190 b 464 313 565 288 531 313 l 303 313 l 303 165 "},"г":{"ha":658,"x_min":0,"x_max":0,"o":"m 306 564 l 306 0 l 94 0 l 94 744 l 638 744 l 638 564 "},"д":{"ha":896,"x_min":0,"x_max":0,"o":"m 563 181 l 563 564 l 364 564 l 364 547 b 308 181 362 387 344 265 m 206 0 l 190 -175 l 13 -175 l 13 181 l 93 181 b 165 681 141 283 165 450 l 165 744 l 774 744 l 774 181 l 875 181 l 850 -175 l 672 -175 l 672 0 "},"е":{"ha":851,"x_min":0,"x_max":0,"o":"m 447 -17 b 168 91 334 -17 241 19 b 58 371 95 163 58 256 b 163 646 58 479 93 571 b 426 758 232 721 320 758 b 696 642 544 758 634 719 b 789 354 758 564 789 468 b 786 299 789 343 788 325 l 268 299 b 331 190 278 251 299 215 b 450 153 362 165 402 153 b 631 229 516 153 576 178 l 751 122 b 447 -17 676 30 575 -17 m 583 431 b 533 546 577 479 560 517 b 426 589 505 575 470 589 b 320 547 384 589 348 575 b 265 431 292 518 274 480 "},"ж":{"ha":1238,"x_min":0,"x_max":0,"o":"m 513 0 l 513 193 l 424 297 l 236 0 l 0 0 l 282 436 l 8 744 l 251 744 l 513 428 l 513 744 l 725 744 l 725 428 l 986 744 l 1231 744 l 957 436 l 1238 0 l 1003 0 l 814 297 l 725 193 l 725 0 "},"з":{"ha":726,"x_min":0,"x_max":0,"o":"m 49 638 b 363 754 133 715 238 754 b 565 697 443 754 510 735 b 646 553 619 658 646 610 b 532 385 646 475 608 419 b 664 211 620 353 664 295 b 579 49 664 146 636 92 b 364 -17 523 5 451 -17 b 25 101 227 -17 114 23 l 122 236 b 346 151 188 180 263 151 b 424 174 377 151 403 159 b 456 231 445 190 456 208 b 423 285 456 253 445 271 b 332 307 401 300 371 307 l 244 307 l 244 439 l 331 439 b 408 461 363 439 389 446 b 438 515 428 476 438 494 b 410 565 438 535 428 551 b 340 586 391 579 368 586 b 139 508 261 586 194 560 "},"и":{"ha":882,"x_min":0,"x_max":0,"o":"m 788 0 l 583 0 l 583 433 l 293 0 l 94 0 l 94 744 l 299 744 l 299 310 l 589 744 l 788 744 "},"й":{"ha":882,"x_min":0,"x_max":0,"o":"m 788 0 l 583 0 l 583 433 l 293 0 l 94 0 l 94 744 l 299 744 l 299 310 l 589 744 l 788 744 m 447 815 b 290 871 383 815 331 834 b 214 1026 248 908 223 960 l 338 1049 b 447 956 357 987 394 956 b 557 1049 501 956 538 987 l 681 1026 b 605 871 671 960 646 908 b 447 815 564 834 511 815 "},"к":{"ha":849,"x_min":0,"x_max":0,"o":"m 94 744 l 306 744 l 306 439 l 572 744 l 815 744 l 542 439 l 850 0 l 600 0 l 401 283 l 306 179 l 306 0 l 94 0 "},"л":{"ha":876,"x_min":0,"x_max":0,"o":"m 782 744 l 782 0 l 571 0 l 571 564 l 382 564 b 371 315 382 466 378 383 b 340 150 363 248 353 193 b 286 51 327 107 309 75 b 211 4 263 28 238 13 b 111 -8 184 -4 151 -8 b 4 4 73 -8 38 -4 l 18 175 b 63 171 35 172 50 171 b 115 187 85 171 102 176 b 152 259 128 197 141 222 b 176 433 164 297 172 354 b 183 744 181 511 183 615 "},"м":{"ha":1022,"x_min":0,"x_max":0,"o":"m 94 744 l 308 744 l 510 432 l 714 744 l 928 744 l 928 0 l 714 0 l 714 447 l 507 142 l 303 443 l 303 0 l 94 0 "},"н":{"ha":871,"x_min":0,"x_max":0,"o":"m 776 0 l 565 0 l 565 285 l 306 285 l 306 0 l 94 0 l 94 744 l 306 744 l 306 458 l 565 458 l 565 744 l 776 744 "},"о":{"ha":922,"x_min":0,"x_max":0,"o":"m 460 -17 b 173 95 345 -17 249 21 b 58 371 97 170 58 262 b 174 646 58 479 97 571 b 463 758 252 721 348 758 b 749 647 577 758 673 721 b 864 371 826 572 864 480 b 748 96 864 263 825 171 b 460 -17 671 21 575 -17 m 463 165 b 603 224 521 165 568 185 b 656 371 638 264 656 313 b 601 516 656 427 637 476 b 460 576 564 556 517 576 b 319 517 401 576 355 557 b 267 371 284 478 267 429 b 322 226 267 314 285 266 b 463 165 358 185 405 165 "},"п":{"ha":865,"x_min":0,"x_max":0,"o":"m 771 0 l 560 0 l 560 564 l 306 564 l 306 0 l 94 0 l 94 744 l 771 744 "},"р":{"ha":938,"x_min":0,"x_max":0,"o":"m 94 744 l 306 744 l 306 638 b 538 758 365 718 442 758 b 776 654 630 758 710 724 b 876 371 843 585 876 490 b 777 90 876 252 843 159 b 538 -14 711 21 631 -14 b 306 97 445 -14 368 23 l 306 -222 l 94 -222 m 483 165 b 613 223 534 165 577 184 b 665 374 648 261 665 312 b 613 522 665 434 648 483 b 483 579 577 560 534 579 b 355 522 432 579 390 560 b 303 371 320 483 303 433 b 355 223 303 311 320 261 b 483 165 390 184 432 165 "},"с":{"ha":793,"x_min":0,"x_max":0,"o":"m 446 -17 b 169 96 335 -17 242 21 b 58 371 95 171 58 263 b 169 645 58 478 95 570 b 449 758 244 721 337 758 b 744 628 568 758 667 715 l 621 503 b 447 576 569 552 511 576 b 318 517 395 576 352 556 b 267 371 284 477 267 428 b 319 224 267 313 284 264 b 456 165 353 185 399 165 b 626 244 514 165 571 192 l 750 119 b 619 18 709 75 666 41 b 446 -17 573 -5 515 -17 "},"т":{"ha":697,"x_min":0,"x_max":0,"o":"m 676 564 l 456 564 l 456 0 l 242 0 l 242 564 l 21 564 l 21 744 l 676 744 "},"у":{"ha":833,"x_min":0,"x_max":0,"o":"m 272 -226 b 85 -175 206 -226 143 -209 l 156 -22 b 246 -51 188 -42 218 -51 b 319 -3 279 -51 304 -35 l 28 744 l 251 744 l 421 238 l 583 744 l 803 744 l 517 -18 b 419 -180 488 -95 456 -149 b 272 -226 383 -211 334 -226 "},"ф":{"ha":1254,"x_min":0,"x_max":0,"o":"m 824 576 b 733 540 796 576 766 564 l 733 200 b 824 167 763 178 793 167 b 941 221 875 167 914 185 b 982 371 968 257 982 307 b 940 520 982 433 968 483 b 824 576 913 558 874 576 m 521 -222 l 521 50 b 454 8 505 33 483 19 b 363 -10 425 -4 395 -10 b 144 92 273 -10 200 24 b 61 371 89 159 61 252 b 144 651 61 489 89 583 b 364 753 200 719 273 753 b 454 732 395 753 425 746 b 521 683 483 718 505 702 l 521 972 l 733 972 l 733 683 b 800 732 749 702 771 718 b 890 753 829 746 859 753 b 1110 651 981 753 1054 719 b 1193 371 1165 583 1193 489 b 1110 92 1193 252 1165 159 b 892 -10 1054 24 981 -10 b 800 8 859 -10 829 -4 b 733 50 771 19 749 33 l 733 -222 m 431 576 b 314 520 381 576 342 558 b 272 371 286 483 272 433 b 313 221 272 307 286 257 b 431 167 341 185 380 167 b 521 200 461 167 491 178 l 521 540 b 431 576 488 564 458 576 "},"х":{"ha":811,"x_min":0,"x_max":0,"o":"m 293 378 l 42 744 l 268 744 l 407 528 l 547 744 l 768 744 l 517 382 l 779 0 l 553 0 l 403 232 l 253 0 l 32 0 "},"ц":{"ha":893,"x_min":0,"x_max":0,"o":"m 669 0 l 94 0 l 94 744 l 306 744 l 306 181 l 560 181 l 560 744 l 771 744 l 771 181 l 872 181 l 847 -175 l 669 -175 "},"ч":{"ha":842,"x_min":0,"x_max":0,"o":"m 288 511 b 390 389 288 430 322 389 b 535 425 438 389 487 401 l 535 744 l 747 744 l 747 0 l 535 0 l 535 260 b 333 211 468 227 401 211 b 146 274 256 211 194 232 b 74 451 98 316 74 375 l 74 744 l 288 744 "},"ш":{"ha":1297,"x_min":0,"x_max":0,"o":"m 1203 0 l 94 0 l 94 744 l 306 744 l 306 181 l 543 181 l 543 744 l 754 744 l 754 181 l 990 181 l 990 744 l 1203 744 "},"щ":{"ha":1325,"x_min":0,"x_max":0,"o":"m 94 0 l 94 744 l 306 744 l 306 181 l 543 181 l 543 744 l 754 744 l 754 181 l 990 181 l 990 744 l 1203 744 l 1203 181 l 1304 181 l 1279 -175 l 1101 -175 l 1101 0 "},"ъ":{"ha":901,"x_min":0,"x_max":0,"o":"m 425 339 l 425 167 l 558 167 b 663 256 628 167 663 196 b 635 317 663 281 653 302 b 557 339 617 331 591 339 m 425 499 l 578 499 b 794 436 668 499 740 478 b 875 253 848 394 875 333 b 799 67 875 174 850 112 b 589 0 749 22 679 0 l 214 0 l 214 567 l 21 567 l 21 744 l 425 744 "},"ы":{"ha":1160,"x_min":0,"x_max":0,"o":"m 94 744 l 306 744 l 306 499 l 458 499 b 674 436 548 499 620 478 b 756 253 728 394 756 333 b 680 67 756 174 730 112 b 469 0 629 22 559 0 l 94 0 m 306 339 l 306 167 l 439 167 b 543 256 508 167 543 196 b 516 317 543 281 534 302 b 438 339 498 331 472 339 m 854 744 l 1065 744 l 1065 0 l 854 0 "},"ь":{"ha":782,"x_min":0,"x_max":0,"o":"m 94 744 l 306 744 l 306 499 l 458 499 b 674 436 548 499 620 478 b 756 253 728 394 756 333 b 680 67 756 174 730 112 b 469 0 629 22 559 0 l 94 0 m 306 339 l 306 167 l 439 167 b 543 256 508 167 543 196 b 516 317 543 281 534 302 b 438 339 498 331 472 339 "},"э":{"ha":799,"x_min":0,"x_max":0,"o":"m 268 443 l 526 443 b 460 544 513 485 491 518 b 351 582 429 569 393 582 b 171 511 281 582 221 558 l 61 640 b 350 758 140 719 236 758 b 629 645 462 758 555 721 b 740 371 703 570 740 478 b 630 96 740 263 703 171 b 353 -17 556 21 464 -17 b 43 119 229 -17 125 29 l 163 240 b 343 160 219 187 279 160 b 460 199 388 160 427 173 b 528 301 492 225 515 259 l 268 301 "},"ю":{"ha":1207,"x_min":0,"x_max":0,"o":"m 772 -17 b 531 67 678 -17 597 11 b 407 285 465 123 424 196 l 306 285 l 306 0 l 94 0 l 94 744 l 306 744 l 306 458 l 407 458 b 534 674 425 546 468 618 b 775 758 600 730 681 758 b 1044 647 885 758 975 721 b 1149 371 1114 573 1149 481 b 1043 95 1149 262 1113 170 b 772 -17 973 21 882 -17 m 775 165 b 899 223 830 165 871 184 b 940 371 926 261 940 311 b 896 517 940 429 925 478 b 772 576 866 557 825 576 b 649 519 718 576 676 557 b 607 371 621 480 607 431 b 651 224 607 313 622 264 b 775 165 681 185 722 165 "},"я":{"ha":849,"x_min":0,"x_max":0,"o":"m 754 0 l 543 0 l 543 239 l 429 239 l 272 0 l 28 0 l 218 274 b 63 496 114 313 63 388 b 142 677 63 572 89 632 b 364 744 194 722 269 744 l 754 744 m 543 392 l 543 579 l 399 579 b 308 555 360 579 330 571 b 276 485 287 539 276 515 b 309 416 276 455 287 432 b 400 392 331 400 361 392 "},"ё":{"ha":851,"x_min":0,"x_max":0,"o":"m 447 -17 b 168 91 334 -17 241 19 b 58 371 95 163 58 256 b 163 646 58 479 93 571 b 426 758 232 721 320 758 b 696 642 544 758 634 719 b 789 354 758 564 789 468 b 786 299 789 343 788 325 l 268 299 b 331 190 278 251 299 215 b 450 153 362 165 402 153 b 631 229 516 153 576 178 l 751 122 b 447 -17 676 30 575 -17 m 583 431 b 533 546 577 479 560 517 b 426 589 505 575 470 589 b 320 547 384 589 348 575 b 265 431 292 518 274 480 m 472 1014 l 675 1014 l 675 826 l 472 826 m 175 1014 l 378 1014 l 378 826 l 175 826 "},"ђ":{"ha":865,"x_min":0,"x_max":0,"o":"m 565 360 b 532 472 565 409 554 446 b 438 511 510 498 478 511 b 341 472 397 511 365 498 b 306 360 317 446 306 409 l 306 0 l 94 0 l 94 765 l 3 765 l 3 913 l 94 913 l 94 1014 l 306 1014 l 306 913 l 522 913 l 522 765 l 306 765 l 306 583 b 524 703 368 663 440 703 b 710 629 603 703 665 678 b 776 426 754 580 776 513 l 776 268 b 703 64 776 182 752 114 b 511 -11 654 14 590 -11 b 452 -8 490 -11 470 -10 b 412 -1 434 -5 421 -3 b 383 8 403 2 393 5 b 363 15 372 12 365 14 l 397 176 b 428 174 404 175 414 174 b 528 215 469 174 503 188 b 565 331 553 243 565 281 "},"ѓ":{"ha":658,"x_min":0,"x_max":0,"o":"m 306 564 l 306 0 l 94 0 l 94 744 l 638 744 l 638 564 m 386 1072 l 568 993 l 390 826 l 229 826 "},"є":{"ha":799,"x_min":0,"x_max":0,"o":"m 531 301 l 271 301 b 339 199 284 259 306 225 b 456 160 371 173 410 160 b 636 240 519 160 580 187 l 756 119 b 446 -17 673 29 570 -17 b 169 96 335 -17 242 21 b 58 371 95 171 58 263 b 169 645 58 478 95 570 b 449 758 244 721 337 758 b 738 640 563 758 659 719 l 628 511 b 447 582 578 558 518 582 b 338 544 406 582 369 569 b 272 443 307 518 285 485 l 531 443 "},"ѕ":{"ha":697,"x_min":0,"x_max":0,"o":"m 356 -14 b 36 99 238 -14 131 24 l 126 238 b 361 149 208 178 286 149 b 450 207 420 149 450 168 b 448 221 450 212 449 216 b 440 233 447 225 444 230 b 428 244 437 237 433 241 b 412 253 424 247 419 250 b 394 262 405 257 399 259 b 372 270 389 264 381 267 b 349 278 363 273 355 276 b 322 285 342 280 333 282 b 296 293 311 289 302 291 b 216 322 264 302 238 312 b 147 362 194 331 171 345 b 92 427 123 379 105 401 b 74 519 80 453 74 484 b 151 692 74 593 100 650 b 346 756 203 734 268 756 b 624 669 446 756 538 727 l 543 524 b 342 593 464 570 397 593 b 264 539 290 593 264 575 b 392 458 264 514 306 487 b 415 450 402 455 410 452 b 479 426 440 442 462 434 b 539 396 497 419 517 409 b 592 355 561 383 579 369 b 626 300 606 341 617 322 b 640 226 636 278 640 253 b 562 47 640 147 614 87 b 356 -14 509 6 441 -14 "},"і":{"ha":419,"x_min":0,"x_max":0,"o":"m 99 1014 l 321 1014 l 321 826 l 99 826 m 104 744 l 315 744 l 315 0 l 104 0 "},"ї":{"ha":419,"x_min":0,"x_max":0,"o":"m 257 1014 l 460 1014 l 460 826 l 257 826 m -40 1014 l 163 1014 l 163 826 l -40 826 m 104 744 l 315 744 l 315 0 l 104 0 "},"ј":{"ha":419,"x_min":0,"x_max":0,"o":"m 99 1014 l 321 1014 l 321 826 l 99 826 m 76 -226 b -15 -218 44 -226 13 -224 l -15 -53 b 29 -57 1 -56 16 -57 b 104 29 79 -57 104 -28 l 104 744 l 315 744 l 315 13 b 76 -226 315 -147 236 -226 "},"љ":{"ha":1258,"x_min":0,"x_max":0,"o":"m 571 564 l 382 564 b 371 315 382 466 378 383 b 340 150 363 248 353 193 b 286 51 327 107 309 75 b 211 4 263 28 238 13 b 111 -8 184 -4 151 -8 b 4 4 69 -8 33 -4 l 18 175 b 63 171 35 172 50 171 b 115 187 85 171 102 176 b 152 259 128 197 141 222 b 176 433 164 297 172 354 b 183 744 181 511 183 615 l 782 744 l 782 499 l 935 499 b 1151 436 1025 499 1097 478 b 1232 253 1205 394 1232 333 b 1156 67 1232 174 1207 112 b 946 0 1106 22 1036 0 l 571 0 m 782 339 l 782 167 l 915 167 b 1019 256 985 167 1019 196 b 992 317 1019 281 1010 302 b 914 339 974 331 948 339 "},"њ":{"ha":1253,"x_min":0,"x_max":0,"o":"m 565 328 l 306 328 l 306 0 l 94 0 l 94 744 l 306 744 l 306 488 l 565 488 l 565 744 l 776 744 l 776 488 l 929 488 b 1145 427 1019 488 1091 467 b 1226 246 1199 387 1226 326 b 1151 65 1226 168 1201 108 b 940 0 1100 22 1030 0 l 565 0 m 776 328 l 776 167 l 910 167 b 1014 249 979 167 1014 194 b 908 328 1014 301 979 328 "},"ћ":{"ha":865,"x_min":0,"x_max":0,"o":"m 94 913 l 94 1014 l 306 1014 l 306 913 l 522 913 l 522 765 l 306 765 l 306 583 b 524 703 368 663 440 703 b 710 629 603 703 665 678 b 776 426 754 580 776 513 l 776 0 l 565 0 l 565 360 b 532 472 565 409 554 446 b 438 511 510 498 478 511 b 341 472 397 511 365 498 b 306 360 317 446 306 409 l 306 0 l 94 0 l 94 765 l 3 765 l 3 913 "},"ќ":{"ha":849,"x_min":0,"x_max":0,"o":"m 94 744 l 306 744 l 306 439 l 572 744 l 815 744 l 542 439 l 850 0 l 600 0 l 401 283 l 306 179 l 306 0 l 94 0 m 481 1072 l 663 993 l 485 826 l 324 826 "},"ў":{"ha":833,"x_min":0,"x_max":0,"o":"m 272 -226 b 85 -175 206 -226 143 -209 l 156 -22 b 246 -51 188 -42 218 -51 b 319 -3 279 -51 304 -35 l 28 744 l 251 744 l 421 238 l 583 744 l 803 744 l 517 -18 b 419 -180 488 -95 456 -149 b 272 -226 383 -211 334 -226 m 419 815 b 262 871 356 815 303 834 b 186 1026 221 908 195 960 l 310 1049 b 419 956 329 987 366 956 b 529 1049 473 956 510 987 l 653 1026 b 577 871 644 960 618 908 b 419 815 536 834 483 815 "},"џ":{"ha":865,"x_min":0,"x_max":0,"o":"m 336 0 l 94 0 l 94 744 l 306 744 l 306 181 l 560 181 l 560 744 l 771 744 l 771 0 l 535 0 l 535 -175 l 336 -175 "},"Ґ":{"ha":831,"x_min":0,"x_max":0,"o":"m 331 779 l 331 0 l 117 0 l 117 972 l 590 972 l 590 1175 l 768 1175 l 796 779 "},"ґ":{"ha":658,"x_min":0,"x_max":0,"o":"m 306 564 l 306 0 l 94 0 l 94 744 l 435 744 l 435 919 l 613 919 l 638 564 "},"–":{"ha":733,"x_min":0,"x_max":0,"o":"m 69 529 l 664 529 l 664 332 l 69 332 "},"—":{"ha":1247,"x_min":0,"x_max":0,"o":"m 69 529 l 1178 529 l 1178 332 l 69 332 "},"‘":{"ha":397,"x_min":0,"x_max":0,"o":"m 79 719 b 144 915 79 808 101 873 b 336 979 187 956 251 977 l 354 892 b 218 754 256 881 211 836 l 304 754 l 304 532 l 79 532 "},"’":{"ha":397,"x_min":0,"x_max":0,"o":"m 43 613 b 179 750 141 623 187 669 l 93 750 l 93 972 l 318 972 l 318 785 b 253 590 318 696 297 631 b 61 525 210 548 146 527 "},"‚":{"ha":397,"x_min":0,"x_max":0,"o":"m 36 -137 b 172 0 134 -127 180 -81 l 86 0 l 86 222 l 311 222 l 311 35 b 247 -160 311 -54 290 -119 b 54 -225 203 -202 139 -223 "},"“":{"ha":750,"x_min":0,"x_max":0,"o":"m 432 719 b 497 915 432 808 453 873 b 689 979 540 956 604 977 l 707 892 b 571 754 609 881 563 836 l 657 754 l 657 532 l 432 532 m 79 719 b 144 915 79 808 101 873 b 336 979 187 956 251 977 l 354 892 b 218 754 256 881 211 836 l 304 754 l 304 532 l 79 532 "},"”":{"ha":750,"x_min":0,"x_max":0,"o":"m 396 613 b 532 750 494 623 539 669 l 446 750 l 446 972 l 671 972 l 671 785 b 606 590 671 696 649 631 b 414 525 563 548 499 527 m 43 613 b 179 750 141 623 187 669 l 93 750 l 93 972 l 318 972 l 318 785 b 253 590 318 696 297 631 b 61 525 210 548 146 527 "},"„":{"ha":750,"x_min":0,"x_max":0,"o":"m 389 -137 b 525 0 487 -127 532 -81 l 439 0 l 439 222 l 664 222 l 664 35 b 599 -160 664 -54 642 -119 b 407 -225 556 -202 492 -223 m 36 -137 b 172 0 134 -127 180 -81 l 86 0 l 86 222 l 311 222 l 311 35 b 247 -160 311 -54 290 -119 b 54 -225 203 -202 139 -223 "},"†":{"ha":569,"x_min":0,"x_max":0,"o":"m 240 706 l 74 692 l 74 807 l 239 793 l 221 972 l 349 972 l 331 793 l 496 807 l 496 692 l 329 706 l 343 331 l 226 331 "},"‡":{"ha":597,"x_min":0,"x_max":0,"o":"m 253 179 l 88 165 l 88 281 l 253 267 l 240 486 l 253 706 l 88 692 l 88 807 l 253 793 l 235 972 l 363 972 l 344 793 l 510 807 l 510 692 l 344 706 l 357 486 l 344 267 l 510 281 l 510 165 l 344 179 l 363 0 l 235 0 "},"•":{"ha":694,"x_min":0,"x_max":0,"o":"m 347 282 b 201 342 290 282 241 302 b 140 488 160 383 140 431 l 140 490 b 201 635 140 547 160 595 b 347 696 241 676 290 696 b 494 635 405 696 453 676 b 554 490 534 595 554 547 l 554 488 b 494 342 554 431 534 383 b 347 282 453 302 405 282 "},"…":{"ha":1167,"x_min":0,"x_max":0,"o":"m 861 217 l 1081 217 l 1081 0 l 861 0 m 474 217 l 693 217 l 693 0 l 474 0 m 86 217 l 306 217 l 306 0 l 86 0 "},"‰":{"ha":1722,"x_min":0,"x_max":0,"o":"m 297 486 b 128 557 229 486 172 510 b 63 732 84 604 63 663 l 63 735 b 129 912 63 805 85 864 b 300 983 174 959 231 983 b 469 913 369 983 425 960 b 535 738 513 865 535 807 l 535 735 b 468 558 535 665 513 606 b 297 486 424 510 367 486 m 869 972 l 1035 972 l 325 0 l 160 0 m 1422 -11 b 1253 60 1354 -11 1297 13 b 1188 235 1209 107 1188 165 l 1188 238 b 1254 415 1188 308 1210 367 b 1425 486 1299 462 1356 486 b 1594 415 1494 486 1550 463 b 1660 240 1638 368 1660 310 l 1660 238 b 1593 61 1660 168 1638 109 b 1422 -11 1549 13 1492 -11 m 894 -11 b 726 60 826 -11 770 13 b 660 235 682 107 660 165 l 660 238 b 726 415 660 308 682 367 b 897 486 771 462 828 486 b 1066 415 966 486 1022 463 b 1132 240 1110 368 1132 310 l 1132 238 b 1065 61 1132 168 1110 109 b 894 -11 1021 13 964 -11 m 300 613 b 365 647 328 613 350 624 b 389 732 381 670 389 699 l 389 735 b 363 821 389 768 380 797 b 297 857 346 845 324 857 b 232 822 269 857 248 845 b 208 738 216 799 208 771 l 208 735 b 234 649 208 701 217 673 b 300 613 251 625 273 613 m 1425 115 b 1490 150 1453 115 1475 127 b 1514 235 1506 173 1514 201 l 1514 238 b 1488 324 1514 271 1505 300 b 1422 360 1471 348 1449 360 b 1357 325 1394 360 1373 348 b 1333 240 1341 302 1333 274 l 1333 238 b 1359 151 1333 204 1342 175 b 1425 115 1376 127 1398 115 m 897 115 b 963 150 925 115 947 127 b 986 235 978 173 986 201 l 986 238 b 960 324 986 271 978 300 b 894 360 943 348 921 360 b 829 325 867 360 845 348 b 806 240 813 302 806 274 l 806 238 b 831 151 806 204 814 175 b 897 115 848 127 870 115 "},"‹":{"ha":518,"x_min":0,"x_max":0,"o":"m 57 367 l 57 378 l 290 689 l 451 611 l 271 374 l 451 136 l 290 56 "},"›":{"ha":518,"x_min":0,"x_max":0,"o":"m 67 133 l 247 371 l 67 608 l 228 689 l 461 378 l 461 367 l 228 56 "},"⁄":{"ha":667,"x_min":0,"x_max":0,"o":"m 549 1053 l 735 1053 l 88 -136 l -99 -136 "},"€":{"ha":1000,"x_min":0,"x_max":0,"o":"m 607 -17 b 344 69 503 -17 416 12 b 196 301 273 126 224 203 l 68 301 l 68 442 l 172 442 b 171 486 171 451 171 466 b 172 536 171 508 171 525 l 68 536 l 68 676 l 199 676 b 349 903 228 771 278 847 b 603 989 419 960 504 989 b 803 943 683 989 750 974 b 944 811 857 913 904 869 l 783 689 b 699 772 756 726 728 753 b 599 799 671 790 638 799 b 421 676 518 799 459 758 l 678 676 l 678 536 l 389 536 b 388 486 388 526 388 509 b 389 442 388 466 388 451 l 678 442 l 678 301 l 419 301 b 607 174 457 216 520 174 b 704 200 645 174 677 182 b 794 288 731 218 761 247 l 947 175 b 800 33 903 113 854 66 b 607 -17 746 0 682 -17 "},"№":{"ha":1474,"x_min":0,"x_max":0,"o":"m 86 972 l 286 972 l 665 383 l 665 972 l 886 972 l 886 0 l 701 0 l 307 606 l 307 0 l 86 0 m 1001 299 l 1374 299 l 1374 172 l 1001 172 m 1186 368 b 1034 429 1125 368 1074 388 b 974 581 994 470 974 520 b 1035 733 974 641 994 691 b 1189 794 1077 774 1128 794 b 1341 733 1250 794 1301 774 b 1401 582 1381 693 1401 642 b 1340 430 1401 522 1381 471 b 1186 368 1298 389 1247 368 m 1189 479 b 1252 508 1215 479 1236 489 b 1276 581 1268 528 1276 552 b 1251 653 1276 609 1268 634 b 1186 683 1235 673 1213 683 b 1123 654 1160 683 1139 674 b 1099 582 1107 635 1099 611 b 1124 509 1099 553 1107 529 b 1189 479 1140 489 1162 479 "},"℗":{"ha":1153,"x_min":0,"x_max":0,"o":"m 575 -17 b 219 130 435 -17 317 32 b 74 483 122 228 74 345 l 74 486 b 221 841 74 624 123 742 b 578 989 319 940 438 989 b 933 842 718 989 836 940 b 1079 489 1031 745 1079 627 l 1079 486 b 932 131 1079 348 1030 230 b 575 -17 834 33 715 -17 m 575 39 b 892 169 701 39 807 82 b 1021 486 978 256 1021 362 l 1021 489 b 894 804 1021 613 978 718 b 578 933 809 890 704 933 b 260 803 452 933 346 890 b 132 486 175 716 132 610 l 132 483 b 259 168 132 359 174 254 b 575 39 344 82 449 39 m 392 763 l 611 763 b 761 712 674 763 724 746 b 817 578 798 678 817 633 l 817 575 b 756 438 817 516 796 470 b 600 389 715 405 663 389 l 511 389 l 511 228 l 392 228 m 603 493 b 671 516 631 493 654 501 b 696 574 688 531 696 550 l 696 576 b 670 635 696 601 687 621 b 600 657 653 650 630 657 l 511 657 l 511 493 "},"™":{"ha":958,"x_min":0,"x_max":0,"o":"m 479 972 l 582 972 l 694 792 l 807 972 l 907 972 l 907 544 l 815 544 l 815 833 l 697 646 l 689 646 l 571 833 l 571 544 l 479 544 m 164 886 l 36 886 l 36 972 l 389 972 l 389 886 l 261 886 l 261 544 l 164 544 "},"∂":{"ha":694,"x_min":0,"x_max":0,"o":"m 0 972 l 694 972 l 694 0 l 0 0 m 583 68 l 347 422 l 113 68 m 306 486 l 68 839 l 68 133 m 625 839 l 388 486 l 625 133 m 583 903 l 113 903 l 347 549 "},"∆":{"ha":792,"x_min":0,"x_max":0,"o":"m 24 0 l 426 972 l 625 972 l 1028 0 m 333 189 l 724 189 l 528 692 "},"∏":{"ha":694,"x_min":0,"x_max":0,"o":"m 0 972 l 694 972 l 694 0 l 0 0 m 583 68 l 347 422 l 113 68 m 306 486 l 68 839 l 68 133 m 625 839 l 388 486 l 625 133 m 583 903 l 113 903 l 347 549 "},"∑":{"ha":694,"x_min":0,"x_max":0,"o":"m 0 972 l 694 972 l 694 0 l 0 0 m 583 68 l 347 422 l 113 68 m 306 486 l 68 839 l 68 133 m 625 839 l 388 486 l 625 133 m 583 903 l 113 903 l 347 549 "},"−":{"ha":889,"x_min":0,"x_max":0,"o":"m 115 392 l 115 586 l 774 586 l 774 392 "},"√":{"ha":840,"x_min":0,"x_max":0,"o":"m -35 321 l -35 457 l 199 457 l 356 154 l 756 1108 l 911 1108 l 371 -178 l 114 321 "},"∞":{"ha":1200,"x_min":0,"x_max":0,"o":"m 333 203 b 135 284 250 203 184 230 b 63 492 87 338 63 407 b 134 694 63 574 86 642 b 328 774 182 747 246 774 b 476 731 386 774 435 759 b 600 603 516 702 557 659 b 724 731 643 659 684 702 b 872 774 765 759 814 774 b 1066 694 954 774 1018 747 b 1138 492 1114 642 1138 574 b 1066 285 1138 408 1114 339 b 871 203 1018 230 953 203 b 726 246 817 203 769 217 b 600 365 684 275 642 314 b 475 244 556 313 515 272 b 333 203 435 217 388 203 m 332 376 b 500 489 386 376 442 414 b 329 601 442 564 385 601 b 254 569 298 601 273 591 b 226 489 236 547 226 520 b 255 408 226 456 236 430 b 332 376 274 387 300 376 m 871 376 b 947 408 903 376 928 387 b 974 489 965 430 974 456 b 944 569 974 521 964 548 b 867 601 925 591 899 601 b 700 489 813 601 757 564 b 871 376 759 414 816 376 "},"∫":{"ha":694,"x_min":0,"x_max":0,"o":"m 0 972 l 694 972 l 694 0 l 0 0 m 583 68 l 347 422 l 113 68 m 306 486 l 68 839 l 68 133 m 625 839 l 388 486 l 625 133 m 583 903 l 113 903 l 347 549 "},"≈":{"ha":889,"x_min":0,"x_max":0,"o":"m 103 564 b 306 778 135 706 203 778 b 454 751 333 778 383 769 b 581 724 525 733 568 724 b 685 789 632 724 667 745 l 792 760 b 589 546 759 617 692 546 b 440 573 561 546 511 555 b 313 600 368 591 325 600 b 208 535 262 600 227 578 m 103 211 b 306 425 135 354 203 425 b 454 398 333 425 383 416 b 581 371 525 380 568 371 b 685 436 632 371 667 393 l 792 407 b 589 193 759 264 692 193 b 440 220 561 193 511 202 b 313 247 368 238 325 247 b 208 182 262 247 227 225 "},"≠":{"ha":889,"x_min":0,"x_max":0,"o":"m 110 763 l 554 763 l 649 906 l 781 906 l 686 763 l 778 763 l 778 574 l 563 574 l 451 404 l 778 404 l 778 215 l 329 215 l 231 67 l 99 67 l 196 215 l 110 215 l 110 404 l 319 404 l 431 574 l 110 574 "},"≤":{"ha":889,"x_min":0,"x_max":0,"o":"m 111 483 l 111 679 l 782 910 l 782 708 l 311 582 l 782 454 l 782 253 m 110 203 l 783 203 l 783 24 l 110 24 "},"≥":{"ha":889,"x_min":0,"x_max":0,"o":"m 111 253 l 111 454 l 582 582 l 111 708 l 111 910 l 782 679 l 782 483 m 783 24 l 110 24 l 110 203 l 783 203 "},"◊":{"ha":889,"x_min":0,"x_max":0,"o":"m 532 -49 l 354 -49 l 93 494 l 356 1038 l 532 1038 l 796 494 m 444 840 l 293 494 l 444 147 l 596 494 "},"":{"ha":694,"x_min":0,"x_max":0,"o":"m 344 824 b 187 879 281 824 228 842 b 111 1035 146 916 120 968 l 235 1057 b 344 964 254 995 291 964 b 454 1057 398 964 435 995 l 578 1035 b 502 879 569 968 543 916 b 344 824 461 842 408 824 "},"":{"ha":694,"x_min":0,"x_max":0,"o":"m 344 815 b 187 871 281 815 228 834 b 111 1026 146 908 120 960 l 235 1049 b 344 956 254 987 291 956 b 454 1049 398 956 435 987 l 578 1026 b 502 871 569 960 543 908 b 344 815 461 834 408 815 "},"ﬀ":{"ha":1061,"x_min":0,"x_max":0,"o":"m 661 564 l 574 564 l 574 738 l 661 738 l 661 785 b 721 965 661 865 681 925 b 892 1024 760 1004 817 1024 b 1042 1003 948 1024 998 1017 l 1042 828 b 946 846 1008 840 976 846 b 869 765 895 846 869 819 l 869 736 l 1040 736 l 1040 564 l 872 564 l 872 0 l 661 0 m 131 564 l 43 564 l 43 738 l 131 738 l 131 785 b 190 965 131 865 150 925 b 361 1024 229 1004 286 1024 b 511 1003 418 1024 468 1017 l 511 828 b 415 846 478 840 446 846 b 339 765 364 846 339 819 l 339 736 l 510 736 l 510 564 l 342 564 l 342 0 l 131 0 "},"ﬁ":{"ha":950,"x_min":0,"x_max":0,"o":"m 629 1014 l 851 1014 l 851 826 l 629 826 m 131 564 l 43 564 l 43 738 l 131 738 l 131 785 b 190 965 131 865 150 925 b 361 1024 229 1004 286 1024 b 511 1003 418 1024 468 1017 l 511 828 b 415 846 478 840 446 846 b 339 765 364 846 339 819 l 339 736 l 510 736 l 510 564 l 342 564 l 342 0 l 131 0 m 635 744 l 846 744 l 846 0 l 635 0 "},"ﬂ":{"ha":950,"x_min":0,"x_max":0,"o":"m 131 564 l 43 564 l 43 738 l 131 738 l 131 785 b 190 965 131 865 150 925 b 361 1024 229 1004 286 1024 b 511 1003 418 1024 468 1017 l 511 828 b 415 846 478 840 446 846 b 339 765 364 846 339 819 l 339 736 l 510 736 l 510 564 l 342 564 l 342 0 l 131 0 m 635 1014 l 846 1014 l 846 0 l 635 0 "},"ﬃ":{"ha":1481,"x_min":0,"x_max":0,"o":"m 1160 1014 l 1382 1014 l 1382 826 l 1160 826 m 661 564 l 574 564 l 574 738 l 661 738 l 661 785 b 721 965 661 865 681 925 b 892 1024 760 1004 817 1024 b 1042 1003 948 1024 998 1017 l 1042 828 b 946 846 1008 840 976 846 b 869 765 895 846 869 819 l 869 736 l 1040 736 l 1040 564 l 872 564 l 872 0 l 661 0 m 131 564 l 43 564 l 43 738 l 131 738 l 131 785 b 190 965 131 865 150 925 b 361 1024 229 1004 286 1024 b 511 1003 418 1024 468 1017 l 511 828 b 415 846 478 840 446 846 b 339 765 364 846 339 819 l 339 736 l 510 736 l 510 564 l 342 564 l 342 0 l 131 0 m 1165 744 l 1376 744 l 1376 0 l 1165 0 "},"ﬄ":{"ha":1481,"x_min":0,"x_max":0,"o":"m 661 564 l 574 564 l 574 738 l 661 738 l 661 785 b 721 965 661 865 681 925 b 892 1024 760 1004 817 1024 b 1042 1003 948 1024 998 1017 l 1042 828 b 946 846 1008 840 976 846 b 869 765 895 846 869 819 l 869 736 l 1040 736 l 1040 564 l 872 564 l 872 0 l 661 0 m 131 564 l 43 564 l 43 738 l 131 738 l 131 785 b 190 965 131 865 150 925 b 361 1024 229 1004 286 1024 b 511 1003 418 1024 468 1017 l 511 828 b 415 846 478 840 446 846 b 339 765 364 846 339 819 l 339 736 l 510 736 l 510 564 l 342 564 l 342 0 l 131 0 m 1165 1014 l 1376 1014 l 1376 0 l 1165 0 "}}}
